<?xml version="1.0" encoding="UTF-8"?>
<svg width="427px" height="568px" viewBox="0 0 427 568" version="1.1" xmlns="http://www.w3.org/2000/svg" xmlns:xlink="http://www.w3.org/1999/xlink">
    <title>koninklijke-beerschot-voetbalclub-antwerpen-seeklogo.com</title>
    <g id="Page-1" stroke="none" stroke-width="1" fill="none" fill-rule="evenodd">
        <g id="koninklijke-beerschot-voetbalclub-antwerpen-seeklogo.com">
            <path d="M1.5389,53.778 C19.8374,42.1749 38.5993,32.5129 58.953,25.0701 C107.06,7.4782 160.4126,0.7491 211.3997,0.4871 C240.4356,0.3381 269.8315,2.583 298.4887,7.263 C307.9221,8.8037 317.313,10.6218 326.631,12.7527 C361.8907,20.8161 395.3989,33.7772 425.5721,53.9237 L426.7597,54.7168 L426.980048,359.7478 C426.9967,382.8002 422.6777,404.4634 412.8473,425.4034 C398.7457,455.4425 375.2315,479.8372 348.993,499.6602 C331.4027,512.9493 311.9698,524.248 292.311,534.1694 C267.2524,546.8162 241.0848,557.5613 214.6942,567.0854 L213.7966,567.4093 L212.8968,567.0919 C146.0916,543.5154 61.3238,504.1002 22.7458,441.0244 C8.5984,417.8928 0.6607,391.1609 0.6315,364.0058 L0.2956,54.5664 L1.5389,53.778 Z" id="path2" fill="#FFFFFF"></path>
            <path d="M2.9705,56.0357 C21.6595,44.1851 39.7968,34.9216 59.8711,27.5808 C108.5576,9.7771 162.5021,3.4118 211.4136,3.1605 C247.606,2.9747 288.0035,6.6613 326.035,15.3588 C362.8968,23.7886 395.4356,37.0162 424.0875,56.1471 L424.306749,359.7498 C424.3341,397.5995 412.9097,448.0212 347.3814,497.5271 C316.7585,520.6622 272.4697,543.3927 213.7866,564.5709 C105.1189,526.2205 50.5566,481.3719 25.0264,439.6295 C8.3152,412.3062 3.3274,384.9919 3.3049,364.0029 L2.9705,56.0357 Z" id="path4" fill="#5D3281"></path>
            <path d="M21.4724,66.3756 L21.7957,363.983 C21.8206,387.2471 28.6843,410.171 40.8008,429.9818 C75.1962,486.219 153.1039,522.9503 213.7245,544.9116 C255.4314,529.5389 301.0132,509.383 336.2353,482.7734 C377.8556,451.3295 405.8546,413.2512 405.81594,359.7631 L405.604,66.2849 C379.763,50.5501 351.4766,40.1452 321.9127,33.3842 C286.1063,25.1955 248.1897,21.4628 211.5085,21.651 C163.0114,21.9001 111.9928,28.2093 66.2217,44.9468 C50.4695,50.7072 35.7698,57.9035 21.4724,66.3756 Z" id="path6" fill="#FFFFFF"></path>
            <path d="M37.2999,75.5435 L37.6131,363.9661 C37.6349,384.3207 43.6972,404.4021 54.2944,421.7289 C85.5361,472.8096 158.0382,507.4014 213.6848,528.0502 C252.4591,513.4915 293.8517,494.9696 326.7005,470.1529 C364.0207,441.9576 390.0337,408.2952 389.998536,359.7745 L389.7931,75.3808 C367.4696,62.9702 343.3017,54.5014 318.3863,48.8035 C283.5882,40.8454 247.2663,37.2851 211.5898,37.4682 C164.811,37.7084 115.7574,43.6745 71.6542,59.802 C59.7624,64.1507 48.3498,69.4546 37.2999,75.5435 Z" id="path8" fill="#5D3281"></path>
            <path d="M173.9165,110.5695 C172.9144,109.0753 169.4626,108.6052 168.0698,108.8892 C166.7022,109.6077 166.1263,111.0854 165.6887,113.1867 C165.4753,114.211 165.5969,116.1815 165.2911,116.857 C164.3405,118.9558 163.227,120.3486 162.386,121.7606 C163.5962,122.7079 164.5846,123.5311 164.3394,124.3304 C164.1656,124.8963 163.8666,125.14 163.3515,125.7676 L164.8366,126.5994 L164.0898,128.9747 C163.583,130.5876 164.0284,132.0466 164.9847,133.4515 C166.1866,131.4886 167.0542,130.194 168.2558,128.4541 C173.0126,130.6589 175.9937,134.7492 180.175,137.9773 C180.7182,140.7308 181.3192,143.261 181.6922,146.1259 C180.7596,147.5642 178.4971,150.7283 176.9253,152.2947 C173.5676,152.8893 170.6207,153.1156 167.2629,153.7105 L163.9704,147.2249 L163.1595,150.2779 C163.35,151.5335 163.4897,153.7802 164.1415,154.1903 L164.2157,156.0528 L162.3361,157.2012 L166.4707,160.6414 C167.4616,160.6095 169.8993,160.7717 172.672,161.2427 C175.8148,161.7762 179.1041,162.6772 180.2728,163.5643 C181.5979,164.5697 182.5031,166.9554 183.5555,169.5704 C185.0936,173.3927 186.8213,177.7073 189.5904,178.9246 C191.89,179.9353 194.4435,181.0151 196.4824,182.4296 C202.7997,186.8121 206.9247,194.2262 206.2981,197.4875 C205.5662,201.296 204.8738,203.168 203.6851,206.6906 C201.9469,211.8408 200.0687,218.7664 201.5172,225.4797 C201.6631,226.1567 201.9403,226.4887 202.4981,225.9428 C205.8164,222.6976 208.5695,216.0991 211.8504,212.8282 C213.5926,211.0912 215.0288,210.6766 216.8418,209.6019 C218.4412,208.654 220.4393,207.0624 221.8003,205.3459 C223.7362,202.9042 225.5231,200.303 227.065,197.4537 C226.0529,205.8652 223.4216,208.9282 221.8789,214.4246 C221.1257,217.1085 220.7178,219.7625 220.7131,223.1539 C219.8518,224.7886 217.747,227.5495 216.3753,228.9076 C211.367,231.6289 203.9667,237.1558 201.6727,241.1262 C189.1589,245.4266 176.732,251.76 164.8148,255.4882 C153.9805,258.8776 140.2739,261.1431 131.178,265.2164 C127.8274,266.7168 123.9867,269.1095 122.6792,273.0912 C121.7257,275.9952 121.9061,280.1634 122.087,285.2682 C123.8372,281.4038 125.394,279.6875 127.1479,279.0914 C128.0586,278.7817 129.5912,278.9083 130.8612,279.6887 C129.2383,281.0022 128.0983,282.4605 128.052,283.9752 L127.7773,292.8911 C128.8079,291.4031 130.4386,289.7412 132.24,288.4633 C133.8293,287.3358 136.752,286.1691 138.172,286.0159 C137.5576,286.8842 136.8315,287.9754 136.551,288.844 C136.6054,290.6706 136.7564,292.8815 136.9333,294.5849 C138.1433,292.6995 139.7341,290.688 141.2969,289.0813 C142.7136,287.6252 144.5221,286.4149 146.3754,285.6819 C146.052,286.5654 145.6891,287.4093 145.2286,288.1565 L145.2161,294.2536 C149.4008,288.9499 151.9254,286.1464 155.5729,285.2163 C158.026,284.5907 163.2811,286.1177 167.3738,287.1326 C169.4426,287.6457 171.2304,288.611 173.0425,288.2419 C175.9547,287.6486 177.7625,282.6254 180.6759,282.0308 C183.5892,281.4361 188.8392,284.1387 190.523,284.8968 C191.4001,283.16 191.8953,281.9383 193.3465,281.517 C195.7866,280.8086 199.0978,281.519 201.9173,282.2743 C202.8693,280.6713 204.6691,278.9675 207.0239,277.4464 C210.6978,275.0731 215.7246,272.983 220.9949,271.1831 C224.8029,269.8827 228.8528,268.4376 232.4977,267.8586 C236.6294,267.2025 239.9444,267.781 242.7227,268.9758 C247.136,263.581 252.0403,258.9398 255.3584,256.3851 C251.621,264.5913 248.0311,273.0487 247.2565,280.5965 C243.7031,272.2415 234.6324,269.9587 230.8131,269.8433 C222.4993,272.0671 216.9969,274.8476 214.4157,276.3893 C212.5388,277.5103 211.3859,278.6026 210.5866,279.1529 C212.4178,286.0386 210.7822,290.948 210.475,298.0609 C210.1479,305.6328 210.9179,312.0335 214.4238,321.4201 C218.8344,333.2293 235.1303,351.0252 240.8449,355.3238 L255.4782,326.8159 L251.611,309.4343 L258.6388,324.8822 L258.4508,331.605 C253.1477,341.6707 248.5745,350.587 246.4458,358.8698 C244.5776,366.1384 244.6214,373.7564 246.9662,380.8988 C248.7701,386.3939 251.8616,391.379 255.0396,395.6348 C260.8381,403.4005 267.0494,409.9179 268.522,423.6686 C267.8374,425.7585 266.0166,427.6586 263.7643,428.8815 C261.7112,429.9963 259.0915,430.8901 256.4941,431.903 C253.4558,433.0882 249.8566,434.7232 247.2656,436.7336 C246.3558,437.4398 245.7244,438.6337 244.9037,439.4337 C243.0961,441.1961 242.1169,442.0255 241.134,443.2584 L244.1643,442.3301 C243.0923,443.2878 241.8616,445.0707 241.0601,446.54 L249.4605,442.91 C252.5923,445.6045 254.2514,445.891 257.3424,445.6464 C263.9381,445.124 272.215,442.9937 277.8804,442.6965 C283.1505,442.4201 288.3488,442.9276 293.4636,442.196 C295.7868,441.8636 298.8554,441.103 301.0765,439.7761 C301.7221,439.0579 302.5252,437.178 302.5511,433.9408 C302.6175,425.6618 299.0637,412.4498 300.1595,407.8918 L302.7021,408.909 C301.4214,406.2479 301.9658,403.6692 301.4523,398.8342 C302.5324,398.7404 304.058,398.1393 305.138,397.6621 C303.2259,395.6021 303.2384,393.1938 303.7966,391.1556 C304.5922,388.2503 307.2197,385.4836 308.8293,383.9952 L309.5484,388.7692 L314.7216,376.8232 C315.4846,377.6232 316.4279,378.5671 318.0034,379.1114 C318.3763,374.5843 319.3458,370.7923 320.6676,367.1316 C321.8724,363.7946 323.4243,360.5642 324.7102,356.9833 C326.9816,350.6581 327.9719,343.8885 328.4101,337.2053 C329.583,319.3416 326.1302,301.434 321.9611,287.903 C319.16,278.8129 316.4321,270.9185 313.0717,264.8642 C310.2633,259.8044 308.6775,259.6386 306.3796,253.9655 C300.8136,240.2246 297.9137,223.3263 295.632,213.5926 C293.9021,216.3688 293.5775,218.328 291.6375,221.231 C288.8917,225.3393 284.3314,230.8601 281.6157,234.9701 C285.2756,225.1731 288.8372,213.7309 289.7352,204.0201 C290.0947,200.1297 289.5451,197.5085 289.2515,194.0453 C288.9185,190.1195 289.1052,186.7119 288.658,182.9963 C287.5617,173.8839 279.8529,169.2971 272.9654,162.2098 C270.3633,156.6701 266.6814,150.8034 262.6636,146.2729 C259.5386,142.7497 256.2524,139.9856 252.8276,137.9 C252.6707,134.2749 251.9111,131.3792 249.6505,130.0612 C247.9605,129.0758 244.7324,129.5031 240.48,130.0044 C234.0937,124.559 227.3283,121.8154 213.043,120.1704 C206.528,116.9633 203.2259,116.1768 201.236,116.2183 C199.5115,116.2542 197.8496,116.9666 194.7257,118.7934 C187.2993,114.7805 180.6605,111.682 173.9165,110.5695 Z M206.4932,305.1647 C207.3984,319.3737 211.0444,329.1731 216.8452,338.8434 C222.0854,347.5788 228.9499,355.1886 237.498,362.2211 C235.5367,362.9257 233.2465,363.9022 231.8606,365.3489 L232.5127,371.0993 C231.2945,370.9755 230.0766,370.7404 228.8586,370.0598 L228.2671,379.655 L225.4483,374.8808 L224.5679,384.9683 L223.3109,383.9765 C222.7088,386.9461 222.6666,390.784 222.6404,394.2469 C222.6288,395.7921 222.9126,397.2651 222.9409,398.5515 C223.001,401.2654 220.6073,404.2074 218.6628,404.6966 C215.1476,405.5811 209.0144,404.3863 204.1277,405.4525 C201.1124,406.1104 197.4597,407.8276 193.5417,408.8704 C187.1109,410.5823 181.8757,411.4701 177.5547,411.432 C174.7817,411.4077 172.5087,410.8841 170.3994,409.2995 C166.8071,410.2258 163.9392,411.7124 161.0041,413.9578 C161.7988,412.056 162.5163,411.0029 163.7461,409.5134 L161.3225,409.9879 C162.0122,409.1008 163.1105,407.8848 164.3387,406.4243 C164.9816,405.6599 165.4804,404.8479 166.2669,404.0283 C168.0469,402.1732 170.8278,399.7727 174.2506,397.7339 C176.8955,396.2838 181.3507,395.4744 185.3188,393.5322 C189.0577,391.7023 192.0372,389.3355 193.5637,387.4407 C194.7326,385.9895 194.7772,384.3387 194.245,383.195 C191.4439,377.1754 180.2316,366.1959 179.8959,347.0751 C179.7965,341.4136 182.2017,334.7827 185.6728,329.1459 C188.9332,323.8509 193.136,319.4704 197.0872,316.4089 C197.5807,316.0324 194.621,316.1505 193.3879,316.0213 C194.4292,315.4011 197.0166,314.2782 198.8764,313.2971 C200.7361,312.316 201.8734,311.4596 200.447,310.9775 L197.3868,309.9434 C199.8998,308.874 203.487,307.1408 206.4932,305.1647 L206.4932,305.1647 Z M199.1591,229.5013 C196.7731,227.2806 196.0054,224.1439 195.6665,220.6794 C194.8933,212.7725 197.756,203.1533 198.724,198.7981 C194.8062,198.351 188.7989,197.2418 184.0111,196.0109 C179.2431,194.785 175.5236,192.1343 170.9165,190.613 C167.3112,189.4226 163.9003,187.6605 160.9083,185.3861 C156.5832,182.0978 153.1301,177.2689 151.2189,169.7217 L142.8916,161.1484 C139.3077,158.7237 136.9269,157.9139 132.9587,156.575 C127.4928,156.2629 123.9483,156.8474 119.6351,159.0971 C110.7807,161.0912 105.0987,164.2596 102.2658,170.0118 L108.9432,168.0613 L105.8826,172.1892 L100.6159,181.1492 C104.9919,179.074 109.5906,176.6647 113.9664,175.592 L109.8806,184.7728 L120.192,178.976 C119.624,180.8082 119.1673,182.7517 119.0445,184.5836 C120.8504,182.6367 122.5283,181.8764 124.0883,181.9836 C126.3312,182.1375 128.3329,183.6836 130.1263,187.4192 C131.5211,190.3247 132.791,194.7112 133.9505,200.4039 L139.5918,199.1555 L150.662,219.0554 L164.3532,221.2181 L174.1749,233.4149 L176.2704,228.3201 L183.5174,238.7325 C189.3714,235.331 191.544,233.8344 197.3978,231.3299 L199.1591,229.5013 Z M232.8618,123.3831 C235.8506,124.4079 239.4801,126.0732 242.213,128.379 C243.7927,127.8666 245.3727,127.3542 246.9526,126.8418 C243.0562,120.7247 238.4658,118.9104 232.8618,123.3831 Z M207.9567,124.4226 L205.1908,121.0504 L197.2151,121.0978 C196.5875,121.993 196.2939,122.7767 196.1116,123.6719 L198.9864,126.357 L200.35,128.8508 L206.55,127.6835 C204.9877,125.7978 204.1195,126.1383 202.5859,124.3112 L201.5032,124.6291 L198.0937,125.0785 L197.2151,122.7602 C199.0693,122.1264 202.8416,122.0041 204.6958,122.0095 L207.9567,124.4226 Z M236.8328,139.2674 L242.9994,133.0846 C245.2991,130.7786 249.2424,132.7617 250.3333,133.9986 L247.4817,134.7338 L247.8493,135.9034 L245.9278,136.9616 L247.1921,137.4573 L247.1921,139.1393 C245.7251,138.9472 245.0253,138.6913 243.7504,139.3304 L244.9365,139.7798 L245.1927,140.838 L243.0976,141.3994 L246.2489,144.1525 C246.1994,144.3283 244.9873,144.9737 244.7083,145.041 C243.5062,145.3319 241.0565,145.4631 239.4115,144.5529 C238.5901,144.0986 239.2246,142.4491 239.7789,141.446 L239.4585,139.7789 C238.8394,140.5477 238.796,141.3332 237.6016,141.9744 C237.94,140.5446 237.5936,140.2494 236.8328,139.2674 L236.8328,139.2674 Z" id="path10" fill="#FFFFFF"></path>
            <path d="M201.8006,450.7759 C202.1985,452.3688 204.5842,453.6948 208.316,453.5524 C215.1761,453.2909 224.9031,450.3085 227.9773,446.6879 C228.2682,443.0158 227.8741,439.4319 226.4666,436.5171 C224.9684,433.4139 222.3213,431.0683 218.1304,430.1798 C216.036,429.7361 216.1793,427.5263 215.3619,427.4468 C214.3101,427.3445 214.972,429.3061 211.997,430.1743 C209.0095,431.046 206.8853,432.718 205.1701,435.0492 C201.8883,439.5099 201.4528,446.5823 201.8006,450.7759 L201.8006,450.7759 Z M200.9874,450.9706 C201.0736,452.0371 202.1463,452.9224 203.2351,453.4412 C205.7449,454.6376 209.1964,454.681 211.9041,454.7283 C215.3229,454.788 219.1411,454.5179 222.4087,453.7768 C225.0439,453.179 227.2544,452.2732 228.8005,450.9871 C230.5509,455.7123 228.305,463.4194 224.9691,466.8794 C222.9362,468.988 221.0582,470.7219 216.5718,471.5751 C217.0726,473.8023 218.0575,475.8109 219.7522,477.6967 L216.9719,479.1838 C215.8097,479.8053 214.254,479.6068 213.5547,477.5581 C213.1065,476.2451 212.8353,474.2648 212.7355,471.5257 C206.9972,470.7261 203.9515,467.4296 201.8304,463.7065 C200.0745,460.6239 199.4335,456.8449 199.7726,451.8493 L200.9874,450.9706 Z" id="path12" fill="#FFFFFF"></path>
            <path d="M76.2316,227.6607 C76.6295,229.2536 79.0153,230.5796 82.7471,230.4372 C89.6072,230.1757 99.3342,227.1933 102.4084,223.5727 C102.6993,219.9006 102.3052,216.3167 100.8977,213.4019 C99.3995,210.2987 96.7524,207.9531 92.5615,207.0646 C90.4671,206.6209 90.6103,204.4111 89.793,204.3316 C88.7412,204.2293 89.4031,206.1909 86.4281,207.0591 C83.4406,207.9308 81.3164,209.6028 79.6012,211.934 C76.3194,216.3947 75.8839,223.4671 76.2316,227.6607 L76.2316,227.6607 Z M75.4185,227.8554 C75.5047,228.9219 76.5774,229.8072 77.6661,230.3261 C80.176,231.5224 83.6275,231.5658 86.3352,231.6131 C89.754,231.6728 93.5722,231.4028 96.8397,230.6616 C99.475,230.0638 101.6854,229.158 103.2315,227.8719 C104.9819,232.5971 102.7361,240.3042 99.4002,243.7642 C97.3673,245.8728 95.4892,247.6067 91.0029,248.4599 C91.5037,250.6871 92.4886,252.6957 94.1833,254.5815 L91.403,256.0686 C90.2408,256.6901 88.6851,256.4916 87.9858,254.4429 C87.5375,253.1299 87.2664,251.1496 87.1666,248.4105 C81.4282,247.6109 78.3826,244.3144 76.2615,240.5913 C74.5055,237.5087 73.8646,233.7297 74.2037,228.7341 L75.4185,227.8554 Z" id="path14" fill="#FFFFFF"></path>
            <path d="M328.1256,227.6135 C328.5235,229.2064 330.9093,230.5323 334.6411,230.39 C341.5011,230.1284 351.2282,227.1461 354.3023,223.5255 C354.5933,219.8534 354.1992,216.2695 352.7917,213.3546 C351.2935,210.2515 348.6464,207.9059 344.4554,207.0174 C342.3611,206.5736 342.5043,204.3639 341.6869,204.2843 C340.6352,204.1821 341.2971,206.1437 338.3221,207.0118 C335.3346,207.8836 333.2104,209.5555 331.4952,211.8867 C328.2134,216.3475 327.7779,223.4199 328.1256,227.6135 L328.1256,227.6135 Z M327.3125,227.8082 C327.3987,228.8746 328.4714,229.76 329.5601,230.2788 C332.0699,231.4752 335.5215,231.5186 338.2292,231.5658 C341.648,231.6255 345.4662,231.3555 348.7337,230.6143 C351.369,230.0166 353.5794,229.1108 355.1255,227.8247 C356.8759,232.5498 354.63,240.2569 351.2941,243.7169 C349.2613,245.8256 347.3832,247.5595 342.8969,248.4127 C343.3977,250.6399 344.3826,252.6484 346.0773,254.5343 L343.297,256.0213 C342.1347,256.6429 340.5791,256.4444 339.8797,254.3957 C339.4315,253.0826 339.1604,251.1023 339.0606,248.3633 C333.3222,247.5637 330.2766,244.2672 328.1555,240.5441 C326.3995,237.4615 325.7586,233.6825 326.0976,228.6868 L327.3125,227.8082 Z" id="path16" fill="#FFFFFF"></path>
            <g id="Layer1001" transform="translate(51.000000, 53.000000)" fill="#FFFFFF">
                <polygon id="path18" points="73.8303 8.9875 99.8816 4.7832 100.9611 11.4719 83.1424 14.3476 84.2636 21.2949 100.0303 18.7503 101.1097 25.439 85.343 27.9835 86.5175 35.2607 104.9946 32.2788 106.0741 38.9674 79.3592 43.2463"></polygon>
                <polygon id="path20" points="39.6529 17.436 65.2031 10.8381 66.8971 17.3981 49.4211 21.911 51.1807 28.7247 66.6441 24.7315 68.3381 31.2915 52.8747 35.2847 54.7177 42.4219 72.8395 37.7422 74.5335 44.3023 48.3295 51.0359"></polygon>
                <path d="M32.7968,29.0012 C33.6786,31.447 34.0233,34.4875 31.6717,37.4866 C35.3339,37.4999 38.7313,39.4844 40.2034,43.3624 C41.9044,47.8439 41.0086,53.3466 31.6966,56.9394 L13.9159,63.7996 L3.6717,37.3411 L0.0219,38.7542 L0.0419,31.72 C6.2064,29.3333 11.6439,27.228 17.8085,24.8412 C26.1466,21.6128 31.3466,24.9778 32.7968,29.0012 L32.7968,29.0012 Z M14.1903,41.412 L22.7172,38.1105 C25.6164,36.988 25.8968,34.5302 25.2866,33.0086 C24.6765,31.487 22.705,29.9718 19.8606,31.0731 L11.4483,34.3301 L14.1903,41.412 Z M25.7495,43.9629 L16.5561,47.5224 L19.3383,54.7081 L29.1051,50.9266 C31.8447,49.8659 32.8888,47.8054 32.0031,45.6731 C31.2092,43.7616 29.0364,42.6903 25.7495,43.9629 L25.7495,43.9629 Z" id="path22"></path>
                <path d="M108.7158,3.7628 L124.8173,2.552 C135.6135,1.7401 139.3649,8.98 139.7298,13.8316 C140.2317,20.506 136.136,24.3096 133.6015,25.3662 L142.3849,36.0287 L133.074,36.7289 L125.958,27.6918 L118.9177,28.2212 L119.6336,37.7418 L111.318,38.3671 L108.7158,3.7628 Z M131.1903,14.4507 C130.8407,9.8022 126.8591,9.1928 124.3443,9.3819 L117.5395,9.8936 L118.4097,21.4651 L125.4712,20.9341 C128.2742,20.7233 131.5398,19.0993 131.1903,14.4507 L131.1903,14.4507 Z" id="path24"></path>
                <path d="M275.6518,14.2166 C286.5255,16.6844 292.5624,26.3839 290.3456,36.1515 C288.1289,45.9191 278.4964,52.0623 267.6228,49.5946 C256.7491,47.1268 250.7122,37.4273 252.929,27.6597 C255.1458,17.8921 264.7782,11.7488 275.6518,14.2166 Z M274.0475,21.2857 C280.2593,22.6955 283.301,28.2974 281.9634,34.1911 C280.6258,40.0848 275.3307,43.9089 269.2275,42.5237 C263.1244,41.1386 259.9987,35.4034 261.3363,29.5097 C262.6739,23.616 267.8357,19.8759 274.0475,21.2857 L274.0475,21.2857 Z" id="path26"></path>
                <path d="M196.8295,1.3569 C202.7524,1.8465 207.3804,4.5447 210.4759,8.7087 L204.6694,13.3747 C202.4086,10.4899 200.0445,8.8962 196.2324,8.5811 C189.8843,8.0564 185.2979,12.4835 184.8001,18.5065 C184.3023,24.5296 188.2013,29.7697 194.4384,30.2853 C198.2275,30.5985 201.7831,29.0888 203.8145,26.8078 L209.1066,31.8301 C205.3434,35.7781 200.0831,38.0272 193.8412,37.5112 C182.7289,36.5928 175.3914,27.8358 176.2164,17.8538 C177.0415,7.8719 185.7172,0.4385 196.8295,1.3569 L196.8295,1.3569 Z" id="path28"></path>
                <polygon id="path30" points="217.6658 3.9129 225.9139 5.1419 223.9275 18.4729 239.1465 20.7405 241.1329 7.4095 249.3809 8.6384 244.2668 42.9616 236.0187 41.7327 238.0988 27.7723 222.8798 25.5047 220.7997 39.465 212.5517 38.2361"></polygon>
                <polygon id="path32" points="325.3504 32.2336 325.3125 39.5167 314.0414 35.003 303.6592 60.9283 295.9178 57.8281 306.3 31.9028 296.2664 27.8847 298.7852 21.5951"></polygon>
                <path d="M168.5236,9.6545 C165.8276,8.1321 162.8817,7.2227 159.8552,7.0566 C157.101,6.9055 152.7593,7.5903 152.7637,11.0582 C152.7677,13.9113 157.0577,14.5163 159.3135,14.9593 C163.2922,15.741 168.402,16.7677 171.0824,20.1119 C172.533,21.922 172.9766,24.0901 172.8681,26.384 C172.6978,29.9781 170.006,32.9973 166.9413,34.5787 C163.8243,36.1871 160.03,36.5428 156.874,36.3788 C152.5552,36.1543 147.7749,34.7069 144.0342,32.3854 L146.868,26.1986 C150.1998,28.0626 154.2174,29.7814 158.0919,29.7292 C160.1849,29.701 164.4766,29.3745 164.619,26.3255 C164.7056,24.4751 163.3824,23.5911 161.7702,22.988 C159.5198,22.1466 157.1301,21.8107 154.7942,21.268 C151.8256,20.5782 148.7034,19.5786 146.6408,17.2206 C145.226,15.6032 144.4888,13.6884 144.5072,11.273 C144.5286,8.449 145.895,5.5459 147.7525,3.8767 C150.4682,1.4367 154.5318,0.431 158.1807,0.3636 C163.1358,0.2721 167.3294,1.3623 171.3805,3.4803 L168.5236,9.6545 Z" id="path34"></path>
            </g>
        </g>
    </g>
</svg>