<?xml version="1.0" encoding="utf-8"?>
<!-- Generator: Adobe Illustrator 16.0.0, SVG Export Plug-In . SVG Version: 6.00 Build 0)  -->
<!DOCTYPE svg PUBLIC "-//W3C//DTD SVG 1.1//EN" "http://www.w3.org/Graphics/SVG/1.1/DTD/svg11.dtd">
<svg version="1.1" id="Layer_1" xmlns="http://www.w3.org/2000/svg" xmlns:xlink="http://www.w3.org/1999/xlink" x="0px" y="0px"
	 width="1700.788px" height="1700.787px" viewBox="0 0 1700.788 1700.787" enable-background="new 0 0 1700.788 1700.787"
	 xml:space="preserve">
<g>
	<path fill="#FADD00" d="M1128.218,661.881c256.545,178.96-429.418,348.064-506.069,334.777
		c215.41,1.72,447.71-18.314,613.688-138.139C1321.412,774.982,1261.175,702.089,1128.218,661.881z"/>
	<path fill="#DF1F26" d="M970.527,634.818c196.643,101.37-396.561,318.032-545.33,359.963
		c242.006-20.189,489.169-49.593,666.104-165.983c57.4-45.367,84-87.446,57.555-125.772
		C1122.58,657.348,1055.32,638.575,970.527,634.818z"/>
	<path fill="#2D9C47" d="M572.091,684.567c119.674-33.791,252.954-58.817,348.684-47.085c65.241,4.064,79.154,31.441,41.922,82.124
		c-27.514,37.706-86.813,78.22-167.842,120.611c17.985-43.797,7.504-82.28-34.886-114.509
		C709.593,697.55,645.616,689.414,572.091,684.567z"/>
	<path fill="#FFFFFF" d="M1178.741,834.824c-17.399,0-33.683,4.792-47.627,13.103l7.892-11.306h-89.001l-28.789,44.58l3.752-44.268
		H882.293l-20.172,22.368l7.667-22.368l-83.382-0.155l-63.356,182.237l84.787,0.167l8.76-27.537l5.791,27.537h100.264
		l-31.277-90.576l45.527-46.462l2.813,137.496l71.649-0.157l75.717-108.475c-1.018,5.508-1.577,11.174-1.577,16.971
		c0,51.346,41.776,93.314,93.236,93.314c51.312,0,93.233-41.969,93.233-93.314C1271.974,876.624,1230.052,834.824,1178.741,834.824z
		"/>
	<path fill="#1B1C1C" d="M1178.818,843.11c-46.881,0-85.028,38.074-85.028,84.868c0,46.878,38.147,85.03,85.028,85.03
		c46.791,0,84.871-38.152,84.871-85.03C1263.689,881.184,1225.609,843.11,1178.818,843.11z"/>
	<path fill="#FFFFFF" d="M1241.837,889.926c2.504,4.162,4.566,8.5,6.193,12.957c-1.663-1.671-3.669-3.678-3.669-3.678
		c-0.009-0.01-1.533-1.123-3.181-2.324c-0.809-1.615-1.662-3.213-2.602-4.78c-4.463-7.438-10.149-13.845-16.756-19.042l-2.131-4.348
		c-0.004-0.014-1.166-1.783-2.352-3.586C1227.238,871.201,1235.63,879.625,1241.837,889.926z"/>
	<path fill="#FFFFFF" d="M1124.808,953.375c0.016,0.012-7.025-5.856-10.332-8.613c-2.07-7.953-2.673-16.373-1.615-24.879
		l9.332-10.178c0.009,0,6.391-5.626,9.752-8.587l19.719,14.816c0.072,0.054,0.157,0.07,0.235,0.111l0.245,14.495
		c0,0.029,1.898,13.573,2.402,17.168c-0.195,0.059-0.389,0.146-0.56,0.279l-17.009,13.221L1124.808,953.375z"/>
	<path fill="#FFFFFF" d="M1190.431,875.158c-0.047,0.102-0.113,0.189-0.141,0.301l-5.729,23.861l-15.668,5.141
		c-0.031,0.021-14.749,6.571-16.814,7.492l-17.895-13.434l3.865-14.291c0,0.016,2.979-7.563,4.662-11.843
		c7.352-4.746,15.626-8.051,24.354-9.638l11.344,5.186C1178.391,867.926,1187.128,873.176,1190.431,875.158z"/>
	<path fill="#FFFFFF" d="M1193.619,876.266c0.033-0.141,0.018-0.277,0.016-0.415c4.145-0.21,13.657-0.692,13.664-0.692l12.611,0.758
		c6.195,4.913,11.533,10.953,15.732,17.954c0.463,0.774,0.877,1.569,1.309,2.356c-0.687,10.052-2.327,19.439-4.886,27.939
		c-0.09-0.005-0.173-0.034-0.266-0.022l-20.878,2.474l-11.283-14.721c-0.008-0.009-8.454-8.672-11.693-11.994L1193.619,876.266z"/>
	<path fill="#FFFFFF" d="M1170.726,856.543c-0.013,0.007-2.383,1.552-4.381,2.855c-9.181,1.687-17.881,5.178-25.607,10.187
		l-5.443,0.72c-0.017,0.006-1.826,0.572-3.722,1.168c12.083-10.028,27.244-16.153,43.288-17.044
		C1172.908,855.425,1170.726,856.543,1170.726,856.543z"/>
	<path fill="#FFFFFF" d="M1156.085,950.693c0.472-0.367,0.668-0.929,0.627-1.482l16.404,5.062c0.016,0,11.917,2.259,16.445,3.118
		c-0.143,0.406-0.139,0.865,0.059,1.287l8.857,19.157c-5.954,5.759-12.708,11.165-20.938,16.755
		c-4.971-0.092-9.963-0.727-14.9-1.958c-4.09-1.024-7.988-2.425-11.688-4.134l-7.139-12.33c0.016,0.018-3.303-8.159-4.909-12.118
		L1156.085,950.693z"/>
	<path fill="#FFFFFF" d="M1215.841,974.962c0.02,0-10.713,0.86-14.388,1.155l-8.728-18.881c-0.125-0.266-0.32-0.465-0.538-0.63
		c6.329-7.702,11.954-16.351,17.229-26.363l22.783-2.7c0.188-0.021,0.353-0.092,0.516-0.168c3.557,7.982,6.182,16.073,7.957,24.568
		c-2.885,7.529-7.07,14.402-12.387,20.352L1215.841,974.962z"/>
	<path fill="#FFFFFF" d="M1107.196,910.186c0.165-0.657,0.358-1.299,0.54-1.948c0.35,2.497,0.766,5.415,0.766,5.415
		c0,0.022,0.623,1.783,1.266,3.602c-1.627,10.385-0.854,20.688,1.945,30.297l-0.709,4.103c0,0.013-0.097,2.665-0.184,4.999
		C1104.601,941.998,1103.289,925.84,1107.196,910.186z"/>
	<path fill="#FFFFFF" d="M1160.987,999.6c-8.296-2.041-16.031-5.449-22.966-10.043c2.44,0.414,5.401,0.908,5.401,0.908
		c0.017,0,1.737-0.033,3.597-0.068c4.617,2.36,9.557,4.256,14.795,5.567c5.514,1.375,11.096,2.056,16.645,2.076
		c3.344,1.472,6.463,2.478,9.662,3.155C1179.164,1002.35,1169.992,1001.851,1160.987,999.6z"/>
	<path fill="#FFFFFF" d="M1227.412,983.375c0.949-1.746,1.832-3.37,1.832-3.37c0.006-0.034,0.807-2.944,1.443-5.256
		c5.63-6.259,10.063-13.505,13.123-21.442l3.836-3.642c0.01-0.011,1.251-1.665,2.516-3.353
		C1246.437,960.861,1238.525,973.647,1227.412,983.375z"/>
	<path fill="#1B1C1C" d="M1054.068,846.241c-0.189,0.101-39.096,61.269-43.976,68.943c0.134-1.821,5.113-69.412,5.113-69.412h-0.243
		l-130.793,0.156c-0.156,0.073-36.388,40.298-41.938,46.457c0.731-2.101,16.153-46.3,16.153-46.3h-65.579l-56.947,162.847
		l65.887,0.154c0,0,15.562-46.219,16.064-47.717c0.368,1.53,11.429,47.717,11.429,47.717l81.076,0.167l-28.266-83.071
		c0.091,0.078,59.319-60.442,63.385-64.592c0.023,1.106,2.972,148.135,2.972,148.135h57.163
		c0.191-0.113,117.2-162.953,117.2-162.953l0.271-0.374L1054.068,846.241z"/>
	<polygon fill="#FFFFFF" points="800.795,857.581 842.717,857.581 793.761,997.439 751.833,997.439 	"/>
	<polygon fill="#FFFFFF" points="886.516,857.581 823.482,928.449 840.065,997.439 892.312,997.439 868.068,926.574 
		935.016,857.581 	"/>
	<path fill="#FFFFFF" d="M1058.335,858.491c0,0,42.09,0.107,42.982,0.107c-0.525,0.736-99.848,139.009-99.848,139.009
		c0-0.09-38.168-0.233-40.557-0.257c-0.024-0.447-2.504-138.278-2.504-138.752c0.47,0,43.127,0,43.619,0
		c-0.033,0.502-5.939,85.095-5.939,85.095l8.061,0.168C1004.351,943.748,1058.335,858.491,1058.335,858.491z"/>
	<polygon fill="#1B1C1C" points="461.854,1047.023 482.188,1020.635 494.898,1020.645 460.19,1064.086 451.122,1064.075 
		447.693,1020.577 460.401,1020.601 	"/>
	<path fill="#1B1C1C" d="M538.444,1049.445c-3.579,10.029-14.205,15.723-24.055,15.713c-9.782-0.021-16.427-5.684-12.831-15.768
		c3.595-10.096,14.227-15.79,24.071-15.77C535.479,1033.633,542.04,1039.362,538.444,1049.445z M513.016,1049.401
		c-1.333,3.751,0.207,6.642,4.623,6.642c4.417,0,8.008-2.88,9.348-6.607c1.29-3.643-0.184-6.703-4.602-6.703
		C517.969,1042.723,514.311,1045.771,513.016,1049.401z"/>
	<path fill="#1B1C1C" d="M595.063,1051.265l-22.86-0.042c-1.519,4.265-0.017,6.588,4.46,6.588c2.33,0,4.267-0.736,6.159-2.703
		l10.441,0.021c-4.215,6.969-12.211,10.131-19.19,10.117c-10.146-0.021-15.758-5.561-12.118-15.768
		c3.513-9.85,12.614-15.791,22.581-15.768c10.626,0.01,14.511,6.364,10.916,16.461L595.063,1051.265z M587.133,1045.191
		c0.469-2.827-1.564-4.668-4.489-4.68c-3.161,0-6.36,1.607-8.108,4.656L587.133,1045.191z"/>
	<polygon fill="#1B1C1C" points="628.134,1064.353 617.274,1064.332 624.734,1043.404 621.21,1043.404 624.292,1034.748 
		627.816,1034.762 630.981,1025.871 641.841,1025.895 638.676,1034.771 644.823,1034.781 641.741,1043.426 635.594,1043.426 	"/>
	<path fill="#1B1C1C" d="M675.326,1016.535l10.86,0.023l-7.537,21.16c3.256-2.59,7.343-3.852,10.865-3.852
		c9.074,0.021,12.748,7.293,9.733,15.77c-3.043,8.531-11.96,15.79-21.089,15.766c-3.58,0-6.812-1.339-7.734-4.276h-0.117
		l-1.173,3.284l-10.86-0.011L675.326,1016.535z M674.036,1049.658c-1.333,3.741,0.208,6.633,4.624,6.633
		c4.417,0.011,8.007-2.871,9.341-6.611c1.295-3.642-0.184-6.701-4.595-6.701C678.99,1042.969,675.332,1046.018,674.036,1049.658z"/>
	<path fill="#1B1C1C" d="M753.704,1064.543l-10.86-0.023l1.168-3.281h-0.118c-2.954,2.937-7.192,4.254-10.771,4.254
		c-9.073-0.021-12.848-7.348-9.827-15.824c3.02-8.475,11.875-15.732,20.949-15.713c3.517,0,6.768,1.273,8.113,3.875l1.027-2.881
		l10.86,0.013L753.704,1064.543z M734.496,1049.746c-1.335,3.741,0.201,6.635,4.617,6.635c4.417,0.01,8.013-2.869,9.348-6.611
		c1.295-3.641-0.186-6.699-4.596-6.699C739.443,1043.057,735.791,1046.105,734.496,1049.746z"/>
	<polygon fill="#1B1C1C" points="792.677,1064.6 781.817,1064.577 798.869,1016.736 809.73,1016.748 	"/>
	<path fill="#1B1C1C" d="M895.56,1064.756l-10.854-0.012l1.162-3.294h-0.112c-2.947,2.949-7.19,4.267-10.765,4.253
		c-9.077-0.01-12.853-7.334-9.827-15.824c3.015-8.463,11.871-15.721,20.938-15.711c3.52,0.012,6.779,1.285,8.121,3.875l1.027-2.88
		l10.854,0.022L895.56,1064.756z M876.354,1049.971c-1.343,3.74,0.199,6.632,4.623,6.632c4.421,0,8.019-2.868,9.347-6.61
		c1.295-3.64-0.191-6.701-4.602-6.701C881.312,1043.281,877.648,1046.328,876.354,1049.971z"/>
	<path fill="#1B1C1C" d="M957.158,1064.857l-10.854-0.014l1.162-3.292h-0.111c-2.972,2.935-7.19,4.253-10.775,4.253
		c-9.078-0.02-12.853-7.348-9.827-15.824c3.015-8.477,11.869-15.734,20.938-15.711c3.529,0,6.779,1.271,8.117,3.875l1.027-2.882
		l10.868,0.011L957.158,1064.857z M937.952,1050.061c-1.339,3.752,0.2,6.633,4.624,6.633c4.41,0.01,7.994-2.871,9.336-6.613
		c1.295-3.64-0.181-6.699-4.602-6.699C942.9,1043.381,939.246,1046.42,937.952,1050.061z"/>
	<path fill="#1B1C1C" d="M1005.312,1039.138h0.123c3.785-3.563,7.258-4.769,11.492-4.757c8.24,0,9.736,5.025,7.146,12.284
		l-6.521,18.28l-10.855-0.01l5.137-14.418c1.007-2.826,3.238-7.785-2.121-7.785c-4.423-0.01-6.801,3.152-8.119,6.846l-5.461,15.334
		l-10.866-0.021l10.542-29.57l10.868,0.021L1005.312,1039.138z"/>
	<polygon fill="#1B1C1C" points="1126.007,1055.531 1122.59,1065.113 1084.042,1065.045 1117.43,1031.188 1099.765,1031.154 
		1103.171,1021.584 1140.414,1021.651 1107.146,1055.508 	"/>
	<path fill="#1B1C1C" d="M1186.142,1052.17l-22.857-0.033c-1.52,4.265-0.023,6.566,4.467,6.588c2.322,0,4.266-0.759,6.152-2.701
		l10.441,0.01c-4.209,6.969-12.207,10.13-19.184,10.119c-10.152-0.013-15.759-5.563-12.131-15.758
		c3.531-9.871,12.619-15.791,22.582-15.78c10.63,0.013,14.518,6.378,10.92,16.461L1186.142,1052.17z M1178.215,1046.105
		c0.468-2.834-1.552-4.679-4.478-4.689c-3.173,0-6.367,1.607-8.108,4.67L1178.215,1046.105z"/>
	<path fill="#1B1C1C" d="M1243.443,1052.26l-22.861-0.034c-1.528,4.267-0.01,6.565,4.457,6.577c2.322,0.012,4.266-0.748,6.165-2.691
		h10.439c-4.21,6.979-12.204,10.141-19.194,10.128c-10.143-0.011-15.747-5.561-12.117-15.754
		c3.518-9.874,12.608-15.792,22.581-15.78c10.63,0.01,14.505,6.377,10.919,16.449L1243.443,1052.26z M1235.513,1046.186
		c0.468-2.826-1.563-4.668-4.488-4.682c-3.161,0-6.367,1.61-8.108,4.67L1235.513,1046.186z"/>
</g>
</svg>
