<?xml version="1.0" encoding="utf-8"?>
<!-- Generator: Adobe Illustrator 16.0.0, SVG Export Plug-In . SVG Version: 6.00 Build 0)  -->
<!DOCTYPE svg PUBLIC "-//W3C//DTD SVG 1.1//EN" "http://www.w3.org/Graphics/SVG/1.1/DTD/svg11.dtd">
<svg version="1.1" id="Layer_1" xmlns="http://www.w3.org/2000/svg" xmlns:xlink="http://www.w3.org/1999/xlink" x="0px" y="0px"
	 width="1700.79px" height="1700.79px" viewBox="0 0 1700.79 1700.79" enable-background="new 0 0 1700.79 1700.79"
	 xml:space="preserve">
<g>
	<path d="M1201.545,709.728c-45.914-59.305-106.878-123.729-171.663-181.407c-104.54-93.073-159.995-103.122-178.985-103.122
		c-0.173,0-0.34,0.001-0.501,0.002c-0.163-0.001-0.331-0.002-0.503-0.002c-18.99,0-74.444,10.047-178.985,103.122
		c-64.784,57.678-125.749,122.103-171.663,181.407c-33.64,43.45-73.741,103.126-73.741,140.667s40.101,97.217,73.741,140.667
		c45.914,59.305,106.878,123.729,171.663,181.408c104.54,93.073,159.996,103.122,178.985,103.122c0.173,0,0.34,0,0.502-0.003
		c0.162,0.002,0.33,0.003,0.502,0.003c18.99,0,74.445-10.048,178.985-103.122c64.784-57.678,125.749-122.103,171.663-181.408
		c33.64-43.45,73.741-103.126,73.741-140.667S1235.185,753.178,1201.545,709.728z"/>
	<path fill="#FFFFFF" d="M1020.014,539.405c-105.686-94.094-157.88-99.53-169.619-99.362c-11.738-0.168-63.932,5.267-169.618,99.362
		c-132.214,117.712-240.432,257.046-240.432,310.99s108.217,193.278,240.432,310.99c105.686,94.094,157.88,99.53,169.618,99.361
		c11.738,0.168,63.933-5.268,169.619-99.361c132.215-117.712,240.431-257.046,240.431-310.99S1152.229,657.117,1020.014,539.405z"/>
	<g>
		<path d="M705.871,1107.908c-7.641,0-12.391-5.847-12.391-13.219c0-7.442,4.917-13.156,12.391-13.156
			c7.474,0,12.391,5.714,12.391,13.156C718.261,1102.062,713.511,1107.908,705.871,1107.908z M705.871,1086.349
			c-4.618,0-7.341,4.087-7.341,8.138c0,3.855,1.926,8.604,7.341,8.604c5.415,0,7.341-4.749,7.341-8.604
			C713.212,1090.436,710.488,1086.349,705.871,1086.349z"/>
		<path d="M725.071,1090.934v8.836c0,1.86,0.3,4.086,2.658,4.086c2.358,0,2.657-2.226,2.657-4.086v-8.836h4.65v9.601
			c0,4.751-2.458,7.242-7.308,7.242c-4.851,0-7.309-2.491-7.309-7.242v-9.601H725.071z"/>
		<path d="M749.089,1105.715h-0.067c-0.964,1.331-2.69,2.061-4.385,2.061c-4.784,0-7.508-4.352-7.508-8.771
			c0-4.316,2.757-8.602,7.44-8.602c1.695,0,3.422,0.73,4.452,2.026h0.067v-13.354h4.65v28.171h-4.65V1105.715z M749.554,1099.073
			c0-2.193-1.461-4.551-3.853-4.551s-3.853,2.358-3.853,4.551c0,2.19,1.461,4.584,3.853,4.584S749.554,1101.263,749.554,1099.073z"
			/>
		<path d="M764.935,1094.689v3.819h-8.106v-3.819H764.935z"/>
		<path d="M782.074,1092.063v-9.866h4.885v25.049h-4.885v-11.198h-9.034v11.198h-4.884v-25.049h4.884v9.866H782.074z"/>
		<path d="M794.167,1099.837c0,2.06,0.798,4.383,3.223,4.383c1.528,0,2.492-0.929,3.123-2.223l4.285,0.697
			c-1.129,3.255-3.987,5.083-7.408,5.083c-5.049,0-8.139-3.587-8.139-8.537c0-4.951,2.625-8.837,7.905-8.837
			c5.349,0,7.741,3.953,7.741,8.869v0.565H794.167z M800.513,1096.948c-0.233-1.663-1.296-3.29-3.089-3.29
			c-1.86,0-2.89,1.594-3.123,3.29H800.513z"/>
		<path d="M813.733,1100.134l3.356-9.201h5.082l-7.508,16.644h-2.392l-7.474-16.644h5.116L813.733,1100.134z"/>
		<path d="M827.021,1099.837c0,2.06,0.797,4.383,3.223,4.383c1.529,0,2.491-0.929,3.122-2.223l4.286,0.697
			c-1.13,3.255-3.987,5.083-7.408,5.083c-5.049,0-8.139-3.587-8.139-8.537c0-4.951,2.624-8.837,7.906-8.837
			c5.347,0,7.739,3.953,7.739,8.869v0.565H827.021z M833.365,1096.948c-0.231-1.663-1.295-3.29-3.089-3.29
			c-1.86,0-2.891,1.594-3.123,3.29H833.365z"/>
		<path d="M844.561,1092.628h0.067c0.93-1.428,2.325-2.225,4.053-2.225c0.665,0,1.327,0.166,1.926,0.399l-0.564,4.319
			c-0.564-0.4-1.229-0.599-1.926-0.599c-3.222,0-3.555,2.857-3.555,5.382v7.342h-4.651v-16.313h4.651V1092.628z"/>
		<path d="M856.752,1107.246h-4.651v-28.171h4.651V1107.246z"/>
		<path d="M863.795,1099.837c0,2.06,0.797,4.383,3.222,4.383c1.528,0,2.491-0.929,3.123-2.223l4.285,0.697
			c-1.129,3.255-3.987,5.083-7.408,5.083c-5.05,0-8.139-3.587-8.139-8.537c0-4.951,2.625-8.837,7.907-8.837
			c5.347,0,7.738,3.953,7.738,8.869v0.565H863.795z M870.14,1096.948c-0.232-1.663-1.295-3.29-3.089-3.29
			c-1.861,0-2.892,1.594-3.123,3.29H870.14z"/>
		<path d="M880.437,1099.837c0,2.06,0.799,4.383,3.224,4.383c1.528,0,2.492-0.929,3.122-2.223l4.285,0.697
			c-1.129,3.255-3.985,5.083-7.406,5.083c-5.05,0-8.141-3.587-8.141-8.537c0-4.951,2.626-8.837,7.908-8.837
			c5.35,0,7.739,3.953,7.739,8.869v0.565H880.437z M886.782,1096.948c-0.232-1.663-1.295-3.29-3.089-3.29
			c-1.858,0-2.889,1.594-3.123,3.29H886.782z"/>
		<path d="M907.942,1102.992h6.911v4.254h-11.794v-25.049h4.883V1102.992z"/>
		<path d="M920.035,1099.837c0,2.06,0.797,4.383,3.222,4.383c1.527,0,2.492-0.929,3.122-2.223l4.288,0.697
			c-1.132,3.255-3.987,5.083-7.409,5.083c-5.05,0-8.139-3.587-8.139-8.537c0-4.951,2.624-8.837,7.906-8.837
			c5.348,0,7.74,3.953,7.74,8.869v0.565H920.035z M926.379,1096.948c-0.232-1.663-1.294-3.29-3.089-3.29
			c-1.86,0-2.891,1.594-3.122,3.29H926.379z"/>
		<path d="M937.474,1090.934v8.836c0,1.86,0.299,4.086,2.657,4.086c2.359,0,2.657-2.226,2.657-4.086v-8.836h4.652v9.601
			c0,4.751-2.458,7.242-7.309,7.242c-4.849,0-7.306-2.491-7.306-7.242v-9.601H937.474z"/>
		<path d="M957.372,1100.134l3.357-9.201h5.082l-7.509,16.644h-2.391l-7.474-16.644h5.115L957.372,1100.134z"/>
		<path d="M970.66,1099.837c0,2.06,0.797,4.383,3.224,4.383c1.527,0,2.491-0.929,3.123-2.223l4.285,0.697
			c-1.129,3.255-3.986,5.083-7.408,5.083c-5.051,0-8.14-3.587-8.14-8.537c0-4.951,2.625-8.837,7.906-8.837
			c5.35,0,7.74,3.953,7.74,8.869v0.565H970.66z M977.006,1096.948c-0.234-1.663-1.295-3.29-3.091-3.29
			c-1.859,0-2.889,1.594-3.121,3.29H977.006z"/>
		<path d="M988.201,1092.429h0.066c0.962-1.464,2.59-2.026,4.252-2.026c4.384,0,5.647,3.089,5.647,6.876v9.967h-4.651v-8.638
			c0-1.961,0.1-4.487-2.526-4.487c-2.755,0-2.789,3.093-2.789,5.053v8.073h-4.652v-16.313h4.652V1092.429z"/>
		<path d="M733.055,938.999c-20.537,0-38.229,7.034-51.162,20.334c-12.447,12.801-19.302,30.644-19.302,50.239
			c0,41.76,28.977,70.926,70.464,70.926c41.488,0,70.465-29.166,70.465-70.926c0-19.595-6.854-37.438-19.302-50.239
			C771.286,946.033,753.593,938.999,733.055,938.999z M733.055,1052.938c-27.683,0-40.075-22.31-40.075-44.42
			c0-20.34,14.046-41.96,40.075-41.96c26.03,0,40.076,21.62,40.076,41.96C773.131,1030.628,760.739,1052.938,733.055,1052.938z"/>
		<path d="M888.323,942.51c0,0,0,50.124,0,52.141c-1.973,0-46.543,0-48.517,0c0-2.017,0-52.141,0-52.141H810.35v134.478h29.457
			c0,0,0-57.138,0-59.166c1.974,0,46.544,0,48.517,0c0,2.028,0,59.166,0,59.166h29.458V942.51h-1.052H888.323z"/>
		<path d="M960.767,1052.413c0-2.063,0-109.902,0-109.902h-1.051h-28.407v134.478h68.166v-24.575
			C999.475,1052.413,962.758,1052.413,960.767,1052.413z"/>
		<path d="M981.783,956.215c0-6.916,5.488-12.425,12.427-12.425s12.426,5.509,12.426,12.425c0,6.919-5.487,12.427-12.426,12.427
			S981.783,963.135,981.783,956.215z M984.495,956.215c0,5.54,4.353,9.735,9.715,9.735c5.362,0,9.714-4.196,9.714-9.735
			c0-5.571-4.353-9.733-9.714-9.733C988.848,946.482,984.495,950.644,984.495,956.215z M999.981,962.602h-2.964l-3.028-5.134h-2.271
			v5.134h-2.711v-12.895h6.306c2.997,0,5.048,0.53,5.048,3.942c0,2.378-1.232,3.662-3.533,3.819L999.981,962.602z M995.378,955.152
			c1.45,0,2.333-0.312,2.333-1.722c0-1.408-1.735-1.408-2.997-1.408h-2.997v3.129H995.378z"/>
		<circle fill="#D1D2D3" cx="779.988" cy="668.424" r="27.481"/>
		<path fill="#5EAF46" d="M953.067,804.185c-9.987,0-168.2,72.274-263.865,99.868c-1.822,0.526-5.782,3.155-5.782,4.206
			c0,1.164,4.936,2.103,11.037,2.103c65.179,0,277.532-34.167,277.532-83.05C971.99,814.528,963.528,804.185,953.067,804.185z"/>
		<path d="M871.596,597.612c0-2.615-1.02-4.731-2.278-4.731c-8.061,0-20.443,13.17-26.145,24.6
			c-72.544,145.414-104.563,207.195-104.563,221.395c0,12.785,9.404,23.129,21.025,23.129
			C804.557,863.297,871.596,643.868,871.596,597.612z"/>
		<path fill="#D71920" d="M661.869,701.03c-13.268,0-24.004,10.735-24.004,24.003c0,13.402,10.844,22.93,24.245,24.246
			c236.118,23.192,400.814,77.858,400.814,68.747c0-15.373-190.471-117.391-382.342-117.391
			C670.238,700.635,662.088,701.03,661.869,701.03z"/>
	</g>
</g>
</svg>
