<?xml version="1.0" encoding="utf-8"?>
<!-- Generator: Adobe Illustrator 16.0.0, SVG Export Plug-In . SVG Version: 6.00 Build 0)  -->
<!DOCTYPE svg PUBLIC "-//W3C//DTD SVG 1.1//EN" "http://www.w3.org/Graphics/SVG/1.1/DTD/svg11.dtd">
<svg version="1.1" id="Layer_1" xmlns="http://www.w3.org/2000/svg" xmlns:xlink="http://www.w3.org/1999/xlink" x="0px" y="0px"
	 width="1700.787px" height="1700.787px" viewBox="0 0 1700.787 1700.787" enable-background="new 0 0 1700.787 1700.787"
	 xml:space="preserve">
<g>
	<path fill="#CCCCCC" d="M1121.542,565.792c-81.514,0-136.279-54.765-136.279-136.276v-4.318h-4.318H719.844h-4.318v4.318
		c0,81.512-54.766,136.276-136.278,136.276h-4.318v4.318v264.868c0,54.664,9.547,108.003,28.378,158.537
		c16.365,43.926,39.935,86.281,70.046,125.893c61.515,80.922,135.946,131.766,174.837,154.875l2.204,1.309l2.205-1.309
		c38.895-23.109,113.32-73.953,174.836-154.875c30.109-39.611,53.68-81.967,70.047-125.893
		c18.83-50.533,28.377-103.873,28.377-158.537V570.11v-4.318H1121.542z"/>
	<path fill="#E42222" d="M980.944,429.515c0,89.126,62.885,140.595,140.598,140.595v264.868
		c0,230.976-169.73,375.335-271.148,435.589c-101.414-60.254-271.147-204.613-271.147-435.589V570.11
		c77.712,0,140.598-51.468,140.598-140.595H980.944"/>
	<path fill="#CCCCCC" d="M951.077,461.901H749.709c-11.808,73.839-64.236,126.266-138.074,138.076v235.001
		c0,94.617,30.595,182.837,90.938,262.214c49.954,65.707,109.081,110.361,147.821,135.291
		c38.742-24.93,97.871-69.58,147.822-135.291c60.34-79.377,90.936-167.598,90.936-262.214V599.977
		C1015.31,588.167,962.886,535.74,951.077,461.901"/>
	<path fill="#FFFFFF" d="M947.415,466.221H753.37c-12.979,72.66-64.758,124.438-137.418,137.417v231.339
		c0,93.65,30.3,180.994,90.058,259.602c48.578,63.9,105.918,107.74,144.384,132.762c38.465-25.02,95.805-68.859,144.383-132.762
		c59.76-78.607,90.059-165.951,90.059-259.602V603.639C1012.175,590.659,960.394,538.881,947.415,466.221"/>
	<path fill="#CCCCCC" d="M874.124,1158.405h-2.01c-3.48,0-4.678-0.584-4.963-0.762c-0.828-0.521-1.059-0.982-1.166-1.322
		c-0.084-0.268-0.51-1.957-0.51-9.031v-71.902c0-2.383-1.936-4.318-4.32-4.318h-2.139c-0.619,0-1.232,0.133-1.795,0.391
		l-32.353,14.781c-1.064,0.49-1.888,1.389-2.277,2.494c-0.391,1.105-0.314,2.32,0.211,3.367l1.165,2.334
		c0.753,1.508,2.277,2.389,3.865,2.389c0.579,0,1.167-0.115,1.731-0.365c3.226-1.414,5.21-1.709,6.307-1.709
		c0.671,0,1.021,0.176,1.253,0.332c0.157,0.105,0.429,0.311,0.532,0.512c0.063,0.273,0.314,1.625,0.314,6.117v45.578
		c0,7.262-0.515,8.904-0.573,9.068c-0.128,0.346-0.386,0.807-1.246,1.271c-0.336,0.178-1.767,0.775-5.987,0.775h-2.334
		c-2.383,0-4.316,1.934-4.316,4.318v2.398c0,2.385,1.934,4.32,4.316,4.32h46.294c2.383,0,4.316-1.936,4.316-4.32v-2.398
		C878.44,1160.339,876.507,1158.405,874.124,1158.405"/>
	<path d="M861.155,1075.388v71.902c0,5.406,0.24,8.854,0.715,10.342c0.475,1.49,1.467,2.717,2.982,3.664
		c1.512,0.953,3.932,1.428,7.262,1.428h2.01v2.398H827.83v-2.398h2.336c3.76,0,6.44-0.434,8.041-1.295
		c1.596-0.865,2.678-2.055,3.239-3.57c0.563-1.512,0.845-5.031,0.845-10.568v-45.578c0-4.063-0.195-6.602-0.586-7.619
		c-0.387-1.014-1.112-1.879-2.172-2.592c-1.059-0.713-2.28-1.07-3.662-1.07c-2.205,0-4.886,0.693-8.041,2.076l-1.166-2.334
		l32.354-14.785H861.155z"/>
	<path fill="#CCCCCC" d="M1050.331,741.377c-10.928-25.843-26.576-49.047-46.5-68.974c-19.93-19.928-43.137-35.572-68.975-46.504
		c-11.986-5.067-24.311-9.009-36.893-11.825l0.578-0.88l2.535-3.871l2.576-3.933l-0.617-0.136l0.197-0.301l18.18-27.751l1.828-2.791
		l-2.842-1.746l-2.135-1.306l-0.047-0.031l-0.08-0.046l-0.051-0.031c-0.145-0.079-0.291-0.164-0.438-0.245
		c0.686-1.156,1.439-2.467,2.195-3.893c2.168-0.212,4.096-1.591,5.01-3.626c0.654-1.455,0.725-3.113,0.203-4.597
		c1.354-0.783,2.402-2.084,2.857-3.673c0.473-1.604,0.271-3.332-0.549-4.776c1.24-1.063,2.047-2.637,2.119-4.422
		c0.115-1.647-0.457-3.29-1.58-4.517c-0.092-0.103-0.186-0.198-0.285-0.292c0.029-0.045,0.055-0.091,0.08-0.138
		c0.908-1.522,1.092-3.378,0.514-5.095c-0.564-1.843-1.953-3.278-3.67-3.938c0.006-0.012,0.006-0.02,0.006-0.034
		c0.252-1.791-0.326-3.638-1.586-5.068l-0.064-0.077l-0.076-0.074c-1.252-1.251-2.859-1.938-4.539-1.938
		c-0.119,0-0.236,0.004-0.354,0.011c-0.477-1.596-1.627-2.966-3.191-3.786c-0.896-0.5-1.9-0.765-2.904-0.765
		c-0.766,0-1.508,0.151-2.191,0.426c-0.035-0.053-0.068-0.107-0.104-0.158c-0.955-1.421-2.441-2.354-4.102-2.568
		c-0.334-0.05-0.664-0.076-1-0.076c-1.287,0-2.479,0.366-3.463,1.01c-1.082-1.103-2.578-1.772-4.158-1.861
		c-0.146-0.009-0.293-0.014-0.434-0.014c-1.529,0-2.896,0.566-3.941,1.557c-0.584-1.601-1.832-2.909-3.441-3.6l-0.045-0.022
		l-0.047-0.018c-0.771-0.303-1.566-0.457-2.379-0.457c-0.979,0-1.912,0.228-2.736,0.641c-0.006-0.006-0.006-0.009-0.01-0.016
		c-0.895-1.443-2.385-2.481-4.092-2.843l-0.098-0.022l-0.098-0.013c-0.32-0.047-0.645-0.074-0.965-0.074
		c-1.418,0-2.73,0.466-3.779,1.257c-0.031-0.039-0.063-0.074-0.094-0.109c-1.123-1.227-2.725-1.945-4.389-1.975
		c-0.072-0.001-0.137-0.001-0.203-0.001c-1.672,0-3.23,0.646-4.387,1.825c-0.336,0.338-0.625,0.71-0.865,1.107
		c-0.076,0.003-0.15,0.005-0.225,0.01c-0.754-4.041-3.201-7.55-6.643-9.668v-2.176v-4.317v-3.239h-2.16v-1.963h-3.236h-4.317h-3.24
		v1.963h-2.157v3.239v4.317v2.173c-3.44,2.121-5.89,5.63-6.643,9.671c-0.074-0.005-0.148-0.007-0.223-0.01
		c-0.243-0.397-0.529-0.769-0.864-1.107c-1.158-1.176-2.716-1.825-4.389-1.825c-0.068,0-0.134,0-0.201,0.001
		c-1.666,0.029-3.263,0.748-4.39,1.975c-0.03,0.035-0.063,0.07-0.096,0.109c-1.049-0.791-2.36-1.257-3.776-1.257
		c-0.321,0-0.645,0.026-0.967,0.074l-0.096,0.013l-0.098,0.022c-1.707,0.362-3.198,1.4-4.091,2.843
		c-0.003,0.004-0.008,0.01-0.011,0.016c-0.827-0.413-1.758-0.641-2.739-0.641c-0.809,0-1.609,0.154-2.377,0.457l-0.049,0.018
		l-0.045,0.022c-1.607,0.691-2.854,1.999-3.438,3.6c-1.047-0.99-2.414-1.557-3.944-1.557c-0.141,0-0.283,0.005-0.427,0.014
		c-1.584,0.086-3.08,0.759-4.162,1.861c-0.985-0.644-2.177-1.01-3.464-1.01c-0.333,0-0.669,0.026-1.001,0.076
		c-1.659,0.215-3.15,1.146-4.102,2.57c-0.034,0.052-0.066,0.103-0.1,0.155c-0.687-0.275-1.429-0.426-2.194-0.426
		c-1.005,0-2.007,0.264-2.905,0.765c-1.562,0.82-2.713,2.19-3.192,3.783c-0.114-0.006-0.231-0.008-0.352-0.008
		c-1.675,0-3.287,0.688-4.54,1.938l-0.071,0.074l-0.067,0.077c-1.262,1.43-1.841,3.277-1.588,5.068
		c0.002,0.014,0.003,0.022,0.005,0.034c-1.715,0.659-3.103,2.094-3.666,3.938c-0.579,1.719-0.394,3.572,0.511,5.095
		c0.025,0.047,0.055,0.093,0.083,0.138c-0.098,0.094-0.192,0.188-0.285,0.292c-1.125,1.228-1.699,2.87-1.582,4.517
		c0.075,1.785,0.88,3.358,2.119,4.422c-0.821,1.448-1.021,3.181-0.544,4.787c0.453,1.585,1.505,2.882,2.855,3.662
		c-0.522,1.484-0.455,3.142,0.197,4.594c0.918,2.039,2.843,3.417,5.013,3.629c0.76,1.425,1.507,2.739,2.197,3.893
		c-0.15,0.081-0.295,0.166-0.439,0.245l-0.05,0.031l-0.05,0.028l-0.079,0.049l-2.133,1.306l-2.845,1.746l1.828,2.791l18.181,27.751
		l0.2,0.304l-0.615,0.133l2.575,3.933l2.533,3.871l0.579,0.88c-12.586,2.816-24.908,6.755-36.896,11.825
		c-25.842,10.933-49.046,26.576-68.972,46.504c-19.927,19.927-35.573,43.131-46.503,68.974
		c-11.316,26.752-17.055,55.169-17.055,84.462c0,29.294,5.738,57.71,17.055,84.464c10.93,25.84,26.576,49.045,46.503,68.975
		c19.926,19.926,43.13,35.568,68.972,46.5c26.754,11.316,55.171,17.053,84.464,17.053s57.709-5.736,84.463-17.053
		c25.838-10.932,49.045-26.574,68.975-46.5c19.924-19.93,35.572-43.135,46.5-68.975c11.316-26.754,17.055-55.17,17.055-84.464
		C1067.386,796.546,1061.647,768.129,1050.331,741.377 M796.995,532.792c-1.133,2.718-2.1,6.469-2.001,11.251
		c-3.253,0.611-6.061,1.978-8.065,3.201c-1.037-2.707-0.919-5.468,0.392-8C789.094,535.816,792.756,533.423,796.995,532.792
		 M808.605,545.784c0,1.204,0.063,2.396,0.123,3.451c0.034,0.613,0.075,1.379,0.09,2.071c-0.95-1.334-1.924-4.198-1.924-8.489
		c0-6.175,4.018-11.699,9.829-14.61C812.03,533.122,808.605,539.525,808.605,545.784 M816.811,570.658
		c-0.743,0.081-1.722,0.136-2.986,0.136c-0.203,0-0.878-0.017-1.038-0.252c-0.178-0.26-0.274-0.692-0.301-1.227
		C813.981,570.082,815.526,570.439,816.811,570.658 M822.941,539.991c1.583-2.772,4.059-5.879,7.786-7.827
		c-0.284,1.922-0.532,4.208-0.614,6.649C827.489,539.032,825.038,539.485,822.941,539.991 M815.884,600.213h0.08
		c0.163,0,0.283,0.012,0.365,0.023l0.39,0.611l0.458,0.718c-4.07,0.597-8.124,1.308-12.151,2.125
		C806.999,602.438,811.427,600.213,815.884,600.213 M850.394,520.596c-2.009,0-3.644-1.636-3.644-3.644
		c0-2.011,1.635-3.647,3.644-3.647c2.01,0,3.645,1.636,3.645,3.647C854.038,518.96,852.403,520.596,850.394,520.596
		 M883.978,570.658c1.283-0.218,2.828-0.576,4.326-1.343c-0.027,0.535-0.125,0.967-0.303,1.227
		c-0.158,0.235-0.838,0.252-1.037,0.252C885.698,570.793,884.726,570.738,883.978,570.658 M891.968,551.305
		c0.014-0.691,0.057-1.458,0.092-2.071c0.059-1.055,0.125-2.247,0.125-3.451c0-6.247-3.414-12.636-8.094-17.549
		c1.508,0.756,2.916,1.696,4.17,2.795c3.631,3.19,5.631,7.375,5.631,11.787C893.892,547.107,892.917,549.971,891.968,551.305
		 M884.065,600.85l0.391-0.612c0.09-0.01,0.215-0.024,0.381-0.024c3.26,0,6.285,1.1,8.246,2.024
		c1.166,0.546,2.072,1.077,2.629,1.428c0.01,0.007,0.023,0.013,0.031,0.02c-4.02-0.815-8.068-1.523-12.135-2.12L884.065,600.85z
		 M870.063,532.174c3.691,1.946,6.164,5.047,7.752,7.808c-2.088-0.501-4.531-0.954-7.141-1.169
		C870.591,536.375,870.343,534.096,870.063,532.174 M846.602,537.327c-0.91,0.948-1.471,2.232-1.471,3.646
		c0,1.41,0.56,2.697,1.471,3.642c-0.911,0.945-1.471,2.23-1.471,3.643c0,0.748,0.157,1.46,0.44,2.104
		c-0.452,0.217-0.94,0.477-1.453,0.792c-0.823-4.054-1.685-9.696-1.685-15.537c0-2.417,1.804-4.378,3.361-4.493
		c-0.421,0.757-0.664,1.63-0.664,2.559C845.131,535.094,845.691,536.381,846.602,537.327 M854.188,537.327
		c0.912-0.946,1.469-2.232,1.469-3.643c0-0.928-0.242-1.801-0.664-2.559c1.547,0.106,3.363,2.07,3.363,4.493
		c0,5.848-0.861,11.485-1.684,15.537c-0.287-0.176-0.584-0.347-0.889-0.508c-0.191-0.098-0.379-0.191-0.57-0.281
		c0.287-0.644,0.443-1.359,0.443-2.107c0-1.413-0.557-2.698-1.469-3.643c0.912-0.945,1.469-2.232,1.469-3.642
		C855.657,539.559,855.101,538.274,854.188,537.327 M850.399,561.208c0.469,0.271,0.961,0.742,1.047,1.534
		c-0.123,0.647-0.324,1.889-0.381,3.298l-0.637-0.614l-0.703,0.657c-0.055-1.427-0.258-2.686-0.384-3.34
		C849.431,561.955,849.918,561.483,850.399,561.208 M862.581,597.512h0.07h0.01h0.043c1.363,0,2.68,0.725,3.342,1.159
		c0.561,0.362,0.984,0.72,1.186,0.9c0.096,0.084,0.168,0.15,0.219,0.2c-3.82-0.284-7.65-0.478-11.479-0.57
		C857.698,598.38,860.155,597.512,862.581,597.512 M833.371,599.735c0.546-0.57,2.74-2.225,4.617-2.225l0.063,0.001h0.031h0.055
		c2.613,0,5.072,0.948,6.308,1.514c0.126,0.055,0.252,0.114,0.375,0.175c-3.832,0.092-7.661,0.286-11.485,0.571L833.371,599.735z
		 M903.792,532.792c4.238,0.628,7.9,3.021,9.674,6.45c1.309,2.531,1.432,5.292,0.393,8.002c-2.004-1.223-4.813-2.59-8.066-3.201
		C905.892,539.261,904.923,535.51,903.792,532.792"/>
	<path fill="#E42222" d="M1064.149,825.839c0,118.054-95.703,213.753-213.756,213.753c-118.052,0-213.752-95.699-213.752-213.753
		c0-118.054,95.7-213.752,213.752-213.752C968.446,612.087,1064.149,707.786,1064.149,825.839"/>
	<path fill="#FFFFFF" d="M756.02,1006.954l-13.929-8.543c-3.021-1.854-4.98-4.166-5.88-6.943c-0.897-2.777-0.643-5.316,0.771-7.615
		c1.951-3.184,5.181-4.443,9.689-3.781c-1.159-1.617-1.56-4.309-1.196-8.064s0.674-7.32,0.932-10.688l8.524,5.23
		c-0.076,1.262-0.299,3.617-0.674,7.068c-0.374,3.445-0.345,5.826,0.091,7.137c0.436,1.313,1.165,2.281,2.193,2.912l2.232,1.367
		l7.187-11.719l7.77,4.762L756.02,1006.954z M751.496,996.899l4.031-6.574l-4.106-2.518c-1.309-0.805-2.521-1.154-3.641-1.053
		c-1.118,0.104-2.001,0.684-2.651,1.744c-1.336,2.178-0.523,4.174,2.438,5.992L751.496,996.899z"/>
	<path fill="#FFFFFF" d="M708.617,972.718c-4.484-4.328-6.904-9.086-7.262-14.273c-0.356-5.184,1.069-9.441,4.279-12.77
		c3.258-3.373,7.487-4.938,12.692-4.701c5.204,0.238,10.013,2.486,14.421,6.742c4.46,4.305,6.899,9.041,7.32,14.211
		c0.423,5.17-1.006,9.453-4.285,12.85c-3.222,3.338-7.432,4.912-12.627,4.729C717.961,979.319,713.113,977.056,708.617,972.718
		 M727.865,952.774c-2.486-2.4-5.151-3.65-7.99-3.752c-2.839-0.1-5.331,0.961-7.475,3.184c-2.157,2.23-3.129,4.764-2.924,7.592
		c0.206,2.83,1.553,5.441,4.042,7.84c2.5,2.416,5.169,3.68,8.01,3.789c2.838,0.115,5.337-0.949,7.492-3.18
		c2.143-2.223,3.112-4.752,2.905-7.594C731.718,957.813,730.365,955.188,727.865,952.774"/>
	<polygon fill="#FFFFFF" points="712.669,925.335 699.621,934.257 692.851,956.366 686.614,947.249 690.921,934.688 
		677.635,934.116 671.418,925.022 694.486,926.729 707.524,917.813 	"/>
	<path fill="#FFFFFF" d="M662.228,904.132l24.387-28.578l3.971,8.959l-4.897,5.465l6.638,14.979l7.225-0.213l3.913,8.828
		l-36.956,0.217L662.228,904.132z M681.359,894.812l-9.638,10.758l14.217-0.422L681.359,894.812z"/>
	<polygon fill="#FFFFFF" points="675.114,848.519 681.179,847.193 687.139,874.438 654.047,881.677 652.101,872.772 
		679.128,866.862 	"/>
	<path fill="#FFFFFF" d="M651.377,781.968l36.367-9.428l-1.887,9.617l-7.146,1.668l-3.151,16.081l6.039,3.966l-1.856,9.475
		l-30.397-21.017L651.377,781.968z M672.394,785.302l-14.063,3.286l11.888,7.808L672.394,785.302z"/>
	<polygon fill="#FFFFFF" points="671.99,725.718 702.9,739.572 699.753,746.595 671.69,756.145 691.493,765.023 687.766,773.338 
		656.854,759.484 660.273,751.858 687.157,742.501 668.26,734.032 	"/>
	<polygon fill="#FFFFFF" points="697.394,690.178 702.375,693.882 694.473,704.52 716.686,721.018 711.25,728.331 689.04,711.836 
		681.139,722.472 676.155,718.771 	"/>
	<polygon fill="#FFFFFF" points="731.598,675.652 736.431,700 733.353,702.439 699.445,685.525 707.033,679.514 725.396,688.83 
		721.146,668.337 726.903,663.781 745.884,672.601 740.973,652.638 748.556,646.634 757.313,683.466 754.234,685.903 	"/>
	<polygon fill="#FFFFFF" points="791.913,659.14 794.432,664.816 769.784,675.766 756.029,644.808 780.344,634.006 782.863,639.679 
		766.88,646.782 769.764,653.276 785.008,646.502 787.527,652.174 772.285,658.947 775.592,666.393 	"/>
	<path fill="#FFFFFF" d="M789,631.042l15.891-3.815c3.447-0.828,6.469-0.577,9.068,0.749c2.598,1.329,4.213,3.305,4.843,5.93
		c0.871,3.626-0.521,6.803-4.177,9.524c1.966,0.325,4.151,1.942,6.551,4.854c2.4,2.911,4.702,5.649,6.901,8.212l-9.725,2.336
		c-0.841-0.946-2.349-2.771-4.522-5.474c-2.174-2.7-3.879-4.362-5.115-4.981c-1.232-0.618-2.438-0.788-3.607-0.505l-2.549,0.613
		l3.213,13.369l-8.862,2.125L789,631.042z M799.313,634.95l1.799,7.498l4.686-1.124c1.494-0.361,2.601-0.97,3.317-1.833
		c0.718-0.861,0.931-1.898,0.64-3.109c-0.596-2.484-2.584-3.319-5.961-2.509L799.313,634.95z"/>
	<path fill="#FFFFFF" d="M826.626,623.084l16.294-0.839c3.697-0.19,6.686,0.649,8.968,2.524c2.283,1.875,3.49,4.165,3.633,6.876
		c0.146,2.811-0.811,5.27-2.859,7.385c-2.049,2.113-4.93,3.265-8.646,3.456l-7.242,0.375l0.703,13.583l-9.104,0.47L826.626,623.084z
		 M836.049,628.814l0.406,7.848l4.233-0.22c3.784-0.194,5.609-1.601,5.473-4.215c-0.074-1.467-0.633-2.465-1.671-2.985
		c-1.044-0.519-2.786-0.719-5.227-0.593L836.049,628.814z"/>
	<polygon fill="#FFFFFF" points="918.288,633.281 916.606,639.256 901.13,634.9 899.079,642.182 914.558,646.539 912.874,652.513 
		897.397,648.158 893.632,661.533 884.86,659.063 894.038,626.455 	"/>
	<path fill="#FFFFFF" d="M944.737,644.762c5.525,2.882,9.189,6.763,11,11.637c1.809,4.873,1.646,9.361-0.494,13.458
		c-2.168,4.155-5.783,6.856-10.842,8.096c-5.063,1.245-10.309,0.45-15.742-2.387c-5.492-2.866-9.176-6.718-11.039-11.557
		c-1.867-4.84-1.707-9.353,0.475-13.537c2.146-4.114,5.74-6.816,10.773-8.109C933.903,641.072,939.196,641.871,944.737,644.762
		 M931.915,669.333c3.064,1.599,5.973,2.046,8.725,1.34c2.75-0.708,4.84-2.43,6.27-5.166c1.436-2.753,1.654-5.455,0.654-8.11
		c-0.998-2.653-3.029-4.781-6.09-6.377c-3.082-1.609-6.002-2.065-8.754-1.369c-2.756,0.697-4.852,2.418-6.289,5.168
		c-1.428,2.738-1.641,5.44-0.641,8.105C926.792,665.59,928.833,667.726,931.915,669.333"/>
	<path fill="#FFFFFF" d="M985.653,672.938c4.666,4.13,7.293,8.779,7.871,13.946c0.582,5.164-0.66,9.479-3.725,12.941
		c-3.104,3.511-7.268,5.258-12.475,5.245c-5.213-0.013-10.111-2.052-14.699-6.11c-4.641-4.108-7.283-8.737-7.928-13.882
		c-0.645-5.147,0.596-9.488,3.725-13.022c3.078-3.475,7.211-5.23,12.412-5.273C976.034,666.747,980.974,668.795,985.653,672.938
		 M967.284,693.692c2.59,2.293,5.307,3.427,8.146,3.404c2.842-0.022,5.283-1.188,7.332-3.502c2.057-2.324,2.918-4.895,2.592-7.713
		c-0.33-2.813-1.785-5.368-4.377-7.659c-2.602-2.302-5.324-3.448-8.168-3.439c-2.84,0.014-5.289,1.18-7.344,3.502
		c-2.047,2.313-2.908,4.883-2.578,7.713C963.216,688.827,964.685,691.39,967.284,693.692"/>
	<polygon fill="#FFFFFF" points="1024.052,717.828 1019.089,721.558 1011.128,710.963 989.011,727.584 983.536,720.297 
		1005.655,703.678 997.696,693.085 1002.657,689.356 	"/>
	<path fill="#FFFFFF" d="M1027.753,724.515l6.848,14.256c1.639,3.398,2.164,6.432,1.58,9.103c-0.576,2.672-1.898,4.504-3.969,5.496
		c-2.648,1.276-5.404,0.749-8.26-1.579c0.537,2.533,0.391,4.738-0.428,6.612c-0.822,1.877-2.168,3.264-4.031,4.16
		c-2.656,1.274-5.285,1.328-7.893,0.16c-2.605-1.168-4.83-3.663-6.666-7.487l-7.717-16.051L1027.753,724.515z M1013.978,741.244
		l-7.213,3.467l2.223,4.626c1.051,2.187,2.088,3.626,3.107,4.315c1.023,0.691,2.227,0.703,3.609,0.038
		c1.066-0.511,1.688-1.371,1.871-2.582c0.178-1.208-0.1-2.578-0.834-4.104L1013.978,741.244z M1026.106,735.415l-6.537,3.143
		l2.064,4.293c0.635,1.321,1.445,2.204,2.428,2.64c0.979,0.441,1.945,0.431,2.891-0.023c0.932-0.448,1.529-1.188,1.785-2.221
		c0.258-1.034,0.07-2.213-0.57-3.535L1026.106,735.415z"/>
	<path fill="#FFFFFF" d="M1049.294,781.434l-29.01,23.872l-2.342-9.516l5.775-4.527l-3.914-15.906l-7.148-1.055l-2.311-9.378
		l36.424,6.255L1049.294,781.434z M1028.829,787.263l11.365-8.906l-14.068-2.071L1028.829,787.263z"/>
	<polygon fill="#FFFFFF" points="1026.968,832.688 1020.769,832.987 1019.429,805.127 1053.265,803.5 1053.702,812.604 
		1026.069,813.933 	"/>
	<polygon fill="#FFFFFF" points="1023.327,862.401 1017.165,861.661 1020.487,833.968 1054.114,838.002 1053.034,847.051 
		1025.562,843.756 	"/>
	<path fill="#FFFFFF" d="M1006.946,916.763l-6.723-3.08c-0.137-5.098,0.842-9.924,2.93-14.477
		c2.707-5.902,6.375-9.912,10.996-12.025c4.625-2.115,9.148-2.156,13.57-0.131c4.428,2.031,7.332,5.596,8.725,10.701
		c1.398,5.105,0.73,10.633-2.004,16.584c-2.172,4.744-4.918,8.346-8.23,10.799l-6.857-3.143c3.951-3.066,6.754-6.4,8.406-10.002
		c1.621-3.539,2.068-6.836,1.344-9.887c-0.729-3.051-2.449-5.199-5.168-6.443c-2.734-1.254-5.494-1.184-8.289,0.215
		c-2.793,1.4-4.982,3.826-6.57,7.289c-0.785,1.713-1.332,3.459-1.643,5.24C1007.124,910.181,1006.964,912.966,1006.946,916.763"/>
	<polygon fill="#FFFFFF" points="985.044,940.288 979.981,936.69 996.138,913.958 1023.751,933.575 1018.474,941.005 
		995.915,924.979 	"/>
	<path fill="#FFFFFF" d="M983.948,979.925l-6.609,6.273l-13.238-13.951c-3.4-3.586-4.836-7.395-4.305-11.424
		c0.537-4.025,2.932-8.059,7.188-12.098c4.205-3.988,8.359-6.146,12.463-6.477c4.105-0.33,7.824,1.266,11.164,4.783l13.268,13.986
		l-6.631,6.289l-13.4-14.123c-1.625-1.713-3.533-2.512-5.721-2.396c-2.189,0.115-4.266,1.105-6.227,2.969
		c-2.041,1.932-3.17,4.01-3.393,6.225c-0.221,2.217,0.594,4.293,2.441,6.242L983.948,979.925z"/>
	<path fill="#FFFFFF" d="M969.688,991.624l-13.463,8.307c-3.209,1.979-6.172,2.82-8.889,2.523s-4.68-1.422-5.885-3.375
		c-1.541-2.5-1.307-5.293,0.709-8.381c-2.463,0.799-4.67,0.887-6.619,0.268c-1.955-0.621-3.475-1.813-4.561-3.576
		c-1.545-2.504-1.875-5.113-0.986-7.828c0.887-2.717,3.137-5.188,6.75-7.416l15.152-9.352L969.688,991.624z M951.604,979.673
		l-4.201-6.811l-4.369,2.697c-2.064,1.273-3.387,2.455-3.967,3.543c-0.582,1.09-0.463,2.289,0.34,3.594
		c0.617,1.008,1.541,1.533,2.766,1.584c1.221,0.055,2.553-0.361,3.992-1.252L951.604,979.673z M958.671,991.126l-3.807-6.17
		l-4.057,2.504c-1.244,0.77-2.037,1.668-2.369,2.689c-0.336,1.02-0.227,1.979,0.324,2.873c0.545,0.881,1.346,1.395,2.398,1.541
		s2.207-0.164,3.451-0.938L958.671,991.126z"/>
	
		<rect x="795.6" y="1005.02" transform="matrix(0.203 -0.9792 0.9792 0.203 -340.4054 1599.1379)" fill="#FFFFFF" width="33.139" height="7.329"/>
	<path fill="#FFFFFF" d="M829.194,1010.591c-2.574-1.922-3.741-4.389-3.495-7.398c0.214-2.678,1.312-4.77,3.288-6.268
		c1.976-1.498,4.464-2.127,7.459-1.883c3.151,0.252,5.579,1.332,7.28,3.238c1.702,1.906,2.456,4.105,2.254,6.596
		c-0.249,3.074-1.776,5.309-4.588,6.699c3.158,1.967,4.591,4.764,4.298,8.389c-0.239,2.965-1.444,5.266-3.614,6.908
		c-2.173,1.643-4.943,2.326-8.316,2.055c-3.248-0.264-5.818-1.391-7.712-3.383c-1.894-1.994-2.724-4.432-2.491-7.316
		C823.865,1014.397,825.744,1011.851,829.194,1010.591 M834.291,1024.112c1.087,0.09,2.002-0.301,2.746-1.166
		c0.745-0.867,1.18-2.068,1.303-3.613c0.132-1.617-0.1-2.928-0.692-3.936c-0.595-1.004-1.45-1.551-2.57-1.643
		s-2.056,0.299-2.806,1.164c-0.754,0.865-1.189,2.066-1.314,3.607c-0.129,1.605,0.114,2.912,0.729,3.928
		C832.304,1023.472,833.171,1024.021,834.291,1024.112 M835.504,1009.054c0.945,0.074,1.716-0.285,2.314-1.088
		c0.593-0.799,0.953-1.943,1.074-3.424c0.234-2.932-0.679-4.48-2.744-4.648c-0.93-0.074-1.705,0.266-2.319,1.016
		c-0.615,0.752-0.979,1.828-1.093,3.232c-0.115,1.436,0.077,2.592,0.576,3.473C833.813,1008.495,834.543,1008.976,835.504,1009.054"
		/>
	<path fill="#FFFFFF" d="M855.86,1011.708c-2.818-1.541-4.32-3.816-4.506-6.832c-0.166-2.684,0.625-4.902,2.373-6.668
		c1.746-1.764,4.115-2.734,7.117-2.918c3.156-0.195,5.713,0.533,7.666,2.18c1.955,1.646,3.01,3.717,3.16,6.211
		c0.189,3.08-1.01,5.506-3.592,7.279c3.4,1.502,5.213,4.07,5.436,7.701c0.18,2.967-0.686,5.414-2.604,7.348
		c-1.918,1.932-4.566,2.998-7.939,3.205c-3.256,0.201-5.957-0.553-8.115-2.26c-2.156-1.707-3.324-4.002-3.5-6.891
		C851.122,1016.228,852.624,1013.444,855.86,1011.708 M861.892,1009.294c0.947-0.059,1.656-0.525,2.139-1.402
		c0.475-0.875,0.668-2.055,0.576-3.541c-0.178-2.934-1.303-4.34-3.371-4.213c-0.932,0.057-1.646,0.5-2.148,1.332
		c-0.51,0.83-0.717,1.947-0.631,3.355c0.088,1.434,0.441,2.553,1.063,3.355S860.931,1009.353,861.892,1009.294 M862.815,1024.378
		c1.09-0.066,1.938-0.582,2.555-1.545c0.615-0.963,0.873-2.217,0.781-3.756c-0.1-1.625-0.516-2.891-1.242-3.805
		c-0.73-0.908-1.656-1.332-2.777-1.266c-1.121,0.072-1.992,0.588-2.613,1.551c-0.621,0.961-0.887,2.213-0.793,3.756
		c0.1,1.607,0.525,2.871,1.277,3.787C860.755,1024.021,861.696,1024.444,862.815,1024.378"/>
	<path fill="#FFFFFF" d="M885.124,992.052c3.438-0.713,6.428,0.209,8.971,2.766c2.539,2.561,4.336,6.375,5.389,11.455
		c1.096,5.281,1.018,9.594-0.244,12.939c-1.26,3.348-3.631,5.381-7.117,6.104c-3.531,0.734-6.58-0.17-9.148-2.705
		c-2.57-2.533-4.393-6.402-5.473-11.605c-1.092-5.264-0.945-9.563,0.438-12.895C879.319,994.78,881.718,992.761,885.124,992.052
		 M890.769,1019.253c1.299-0.271,2.08-1.252,2.342-2.947c0.264-1.693-0.057-4.709-0.955-9.045c-0.748-3.607-1.566-6.098-2.459-7.473
		c-0.889-1.373-2.01-1.92-3.352-1.641c-1.32,0.271-2.133,1.205-2.441,2.797c-0.309,1.588-0.012,4.553,0.887,8.887
		c0.758,3.639,1.604,6.188,2.545,7.648C888.276,1018.938,889.419,1019.53,890.769,1019.253"/>
	<path fill="#FFFFFF" d="M850.394,666.064c-88.241,0-159.774,71.534-159.774,159.775c0,88.24,71.533,159.777,159.774,159.777
		c88.242,0,159.773-71.537,159.773-159.777C1010.167,737.598,938.636,666.064,850.394,666.064"/>
	<path d="M963.649,729.043c-15.619,5.381-27.375,16.472-35.525,26.673c-6.932,8.701-11.365,16.894-13.395,20.994
		c-6.633,1.365-13.543,4.605-20.633,8.667c-21.25,12.304-43.791,32.856-49.363,38.036c-4.022,0.527-7.858,0.79-11.498,0.79
		c-16.419-0.018-29.129-4.948-38.991-12.113c-8.635-6.286-15.039-14.389-19.327-22.414c13.736-13.615,26.546-25.393,38.377-35.58
		c0.038,0.025,0.078,0.047,0.114,0.07c2.365,1.428,4.4,2.717,5.84,3.645c1.436,0.928,2.248,1.476,2.251,1.476
		c0.927,0.622,1.976,0.919,3.011,0.919c1.735,0.002,3.44-0.834,4.481-2.38c1.668-2.474,1.01-5.828-1.462-7.493
		c-0.057-0.032-2.231-1.502-5.555-3.577c2.778-2.304,5.495-4.508,8.155-6.632c0.749,0.44,1.481,0.875,2.179,1.298
		c2.364,1.428,4.398,2.72,5.837,3.645c1.438,0.927,2.251,1.475,2.254,1.478c0.921,0.622,1.968,0.918,3.007,0.918
		c1.734,0,3.439-0.835,4.482-2.381c1.668-2.474,1.013-5.828-1.462-7.494c-0.067-0.037-2.958-1.992-7.18-4.583
		c2.912-2.221,5.747-4.335,8.496-6.337c0.409,0.245,0.819,0.486,1.21,0.726c2.364,1.427,4.399,2.715,5.837,3.642
		c1.438,0.929,2.252,1.477,2.254,1.477c0.926,0.622,1.973,0.922,3.01,0.922c1.736,0,3.439-0.836,4.484-2.383
		c1.664-2.471,1.01-5.828-1.465-7.494c-0.061-0.032-2.303-1.549-5.723-3.682c3.164-2.17,6.203-4.192,9.105-6.061
		c0.475,0.281,0.945,0.562,1.396,0.834c2.363,1.426,4.398,2.715,5.838,3.643c1.438,0.927,2.248,1.475,2.252,1.476
		c0.924,0.625,1.971,0.92,3.012,0.923c1.732,0,3.436-0.837,4.482-2.386c1.664-2.471,1.01-5.826-1.463-7.491
		c-0.059-0.031-2.09-1.402-5.227-3.368c11.74-6.952,20.686-11.156,26.641-13.604c3.01-1.238,5.26-2.031,6.721-2.504
		c0.734-0.237,1.264-0.394,1.596-0.489c0.168-0.046,0.285-0.076,0.354-0.096c0.047-0.01,0.047-0.009,0.047-0.01l-0.156-0.65
		c16.096,7.307,30.916,17.525,43.789,30.4C958.499,723.255,961.136,726.111,963.649,729.043"/>
	<path d="M745.05,720.495c28.138-28.139,65.551-43.635,105.344-43.635c16.342,0,32.279,2.618,47.34,7.646
		c-7.303,3.106-17.896,8.285-31.545,16.719c-3.256-1.786-6.68-3.525-9.939-4.927c-2.74-1.173-5.91,0.101-7.086,2.84
		c-1.171,2.741,0.102,5.915,2.844,7.086c1.189,0.51,2.443,1.091,3.721,1.72c-2.777,1.848-5.656,3.823-8.634,5.917
		c-3.195-1.748-6.548-3.445-9.74-4.819c-2.744-1.173-5.913,0.099-7.086,2.841c-1.173,2.739,0.099,5.913,2.842,7.083
		c1.348,0.577,2.773,1.247,4.223,1.968c-2.671,1.985-5.402,4.059-8.209,6.237c-2.788-1.488-5.663-2.919-8.419-4.102
		c-2.739-1.173-5.911,0.099-7.083,2.842c-1.17,2.738,0.099,5.911,2.841,7.083c1.083,0.463,2.22,0.991,3.378,1.554
		c-2.533,2.053-5.108,4.18-7.737,6.389c-3.358-1.854-6.917-3.671-10.294-5.124c-2.742-1.173-5.915,0.097-7.088,2.838
		c-1.17,2.741,0.101,5.913,2.844,7.086c1.813,0.774,3.762,1.717,5.732,2.733c-11.651,10.145-24.172,21.77-37.528,35.077
		c-2.855,0.445-5.654,0.667-8.391,0.669c-13.213,0.013-25.147-4.823-33.767-9.78c-4.305-2.471-7.764-4.95-10.12-6.791
		c-0.084-0.066-0.157-0.125-0.237-0.187C720.632,750.134,731.333,734.21,745.05,720.495"/>
	<path d="M709.245,777.965c2.423,1.764,5.443,3.795,8.993,5.833c9.666,5.542,23.283,11.2,39.14,11.214
		c2.577,0,5.215-0.169,7.89-0.498c4.966,9.376,12.387,18.832,22.619,26.295c11.524,8.425,26.674,14.187,45.264,14.187h0.085
		c3.153,0,6.412-0.179,9.763-0.516c1.408,6.689,3.727,20.176,3.719,36.284c0.017,20.031-3.625,43.928-16.473,64.025
		c-10.316-0.549-22.7-4.057-35.413-9.295c-20.904-8.574-42.729-21.633-59.226-32.529c-8.25-5.449-15.182-10.355-20.036-13.895
		c-2.426-1.768-4.339-3.193-5.635-4.174c-0.135-0.102-0.261-0.195-0.381-0.287c-5.347-15.48-8.139-31.91-8.139-48.771
		C701.415,809.304,704.099,793.183,709.245,777.965"/>
	<path d="M717.813,893.927c8.066,5.633,18.563,12.639,30.283,19.668c13.214,7.918,27.974,15.865,42.635,21.885
		c13.843,5.666,27.564,9.684,40.136,10.141c0.173,0.582,0.359,1.355,0.492,2.264c0.325,2.006,0.522,4.695,0.522,7.846
		c0,4.961-0.495,11.072-1.6,17.74c-32.168-4.314-61.892-18.945-85.231-42.285C733.936,920.073,724.806,907.509,717.813,893.927"/>
	<path d="M841.049,974.522c1.11-6.934,1.623-13.33,1.628-18.793c-0.012-5.021-0.4-9.217-1.309-12.65
		c-0.345-1.248-0.742-2.406-1.338-3.539c13.867-22.369,17.469-47.854,17.484-68.775c-0.004-18.816-2.936-34.058-4.375-40.428
		c4.709-4.333,16.256-14.67,29.176-24.192c6.582-4.853,13.516-9.49,19.975-12.98c4.635-2.526,9.049-4.405,12.744-5.426
		c14.467,37.384,19.07,69.987,19.072,96.448c0,23.709-3.701,42.484-7.371,55.285c-1.836,6.396-3.664,11.297-5.014,14.564
		c-0.635,1.539-1.162,2.699-1.535,3.5c-21.242,11.291-45.055,17.281-69.793,17.281C847.263,974.817,844.147,974.712,841.049,974.522
		"/>
	<path d="M955.737,931.185c-6.355,6.355-13.189,12.063-20.418,17.098c4.422-13.527,9.582-35.434,9.584-64.096
		c0-28.211-5.023-62.932-20.623-102.433c1.863-3.798,6.578-12.606,13.984-21.381c8-9.502,18.973-18.729,32.576-22.248
		c18.521,25.318,28.531,55.745,28.531,87.715C999.372,865.634,983.876,903.044,955.737,931.185"/>
	<path fill="#E42222" d="M926.251,545.836c0.156-1.771-1.375-3.185-2.918-3.037c-0.049-0.72-0.129-1.422-0.246-2.107
		c1.551-0.25,2.672-1.937,2.043-3.721c-0.529-1.818-2.5-2.537-3.859-1.794c-0.324-0.635-0.682-1.244-1.07-1.83
		c1.385-0.885,1.596-2.834,0.332-4.267c-1.342-1.345-3.287-1.305-4.275,0.011c-0.504-0.399-1.025-0.777-1.57-1.125
		c-0.053-0.034-0.109-0.059-0.16-0.093c0.883-1.34,0.301-3.115-1.326-3.95c-1.586-0.908-3.377-0.054-3.922,1.441
		c-0.664-0.238-1.338-0.456-2.029-0.65c0.42-1.47-0.555-3.3-2.26-3.496c-1.705-0.281-3.238,0.775-3.443,2.355
		c-0.695-0.088-1.398-0.166-2.109-0.222c0.135-1.592-1.121-2.951-2.822-3.034c-1.801-0.132-2.756,1.277-3,2.872
		c-0.705,0.019-1.404,0.026-2.117,0.064c-0.713-0.468-1.465-0.914-2.252-1.332c0.77-1.395,0.113-3.217-1.521-3.923
		c-1.65-0.646-3.371,0.12-3.855,1.682c-0.809-0.261-1.646-0.502-2.52-0.72c0.408-1.555-0.635-3.121-2.33-3.481
		c-1.697-0.253-3.217,0.841-3.4,2.438c-0.848-0.104-1.717-0.188-2.611-0.253c0.129-1.595-1.135-3.032-2.818-3.046
		c-1.691-0.066-3.033,1.25-3.004,2.874c-1.799,0.022-3.67,0.096-5.629,0.248c0.018-0.261,0.039-0.523,0.039-0.788
		c-0.002-5.448-3.893-9.979-9.043-10.989v-3.486h2.158v-4.317h-2.158v-1.964h-4.317v1.964h-2.159v4.317h2.159v3.486
		c-5.151,1.01-9.041,5.541-9.043,10.989c0,0.265,0.022,0.527,0.038,0.788c-1.96-0.151-3.829-0.226-5.627-0.248
		c0.026-1.624-1.312-2.939-3.005-2.874c-1.684,0.014-2.945,1.452-2.819,3.046c-0.891,0.066-1.762,0.149-2.608,0.253
		c-0.184-1.596-1.705-2.69-3.401-2.438c-1.696,0.36-2.738,1.927-2.332,3.481c-0.871,0.217-1.709,0.459-2.52,0.72
		c-0.483-1.563-2.206-2.327-3.853-1.682c-1.635,0.706-2.294,2.528-1.521,3.923c-0.789,0.418-1.542,0.864-2.255,1.332
		c-0.713-0.038-1.412-0.045-2.116-0.062v-0.002c-0.243-1.595-1.201-3.004-3.002-2.872c-1.702,0.083-2.956,1.442-2.82,3.034
		c-0.713,0.059-1.415,0.134-2.11,0.223c-0.204-1.581-1.737-2.638-3.442-2.357c-1.706,0.196-2.679,2.026-2.259,3.496
		c-0.691,0.196-1.367,0.413-2.031,0.65c-0.543-1.496-2.334-2.35-3.919-1.441c-1.627,0.835-2.212,2.61-1.327,3.95
		c-0.049,0.034-0.107,0.059-0.158,0.093c-0.547,0.348-1.068,0.726-1.574,1.125c-0.989-1.316-2.932-1.356-4.276-0.011
		c-1.26,1.433-1.05,3.382,0.333,4.267c-0.39,0.586-0.746,1.195-1.072,1.83c-1.358-0.741-3.327-0.024-3.854,1.794
		c-0.631,1.784,0.489,3.471,2.041,3.721c-0.117,0.685-0.196,1.388-0.246,2.107c-1.542-0.148-3.074,1.267-2.918,3.037
		c0.049,1.813,1.591,3.007,3.161,2.774c0.103,0.698,0.231,1.395,0.377,2.085c-1.552,0.304-2.588,1.966-2.091,3.621
		c0.47,1.671,2.16,2.529,3.679,1.983c0.234,0.67,0.483,1.332,0.741,1.984c-1.49,0.574-2.208,2.333-1.519,3.874
		c0.689,1.538,2.454,2.167,3.898,1.444c0.24,0.486,0.483,0.967,0.724,1.433c1.571,3.008,3.13,5.542,4.271,7.3
		c-2.173,0.941-3.481,1.744-3.563,1.785l-2.133,1.307l18.18,27.753l2.075-1.572c0,0,0.058-0.042,0.228-0.166
		c1.202-0.866,6.988-4.505,13.42-4.47c1.229,0.008,1.885,0.338,2.294,0.605c0.2,0.133,0.329,0.257,0.395,0.331l0.007-0.008
		l0.769,1.203l10.796-0.756l0.655-0.717c0-0.002,0.009-0.014,0.095-0.097c0.586-0.637,3.722-3.328,7.12-3.258
		c2.906-0.005,5.665,0.885,7.678,1.804c1.007,0.458,1.819,0.917,2.37,1.252c0.275,0.169,0.483,0.306,0.619,0.4
		c0.136,0.089,0.17,0.119,0.173,0.116l1.438,1.063l1.441-1.063c0,0,0.037-0.026,0.17-0.116c0.938-0.661,5.584-3.492,10.672-3.457
		c1.951-0.009,3.787,0.799,5.141,1.681c0.672,0.435,1.217,0.877,1.578,1.202c0.182,0.16,0.314,0.292,0.4,0.375
		c0.086,0.083,0.092,0.097,0.092,0.097l0.652,0.713l10.799,0.762l0.771-1.204l0.006,0.008c0.225-0.212,0.869-0.917,2.691-0.936
		c3.672-0.004,7.137,1.147,9.656,2.333c1.264,0.592,2.285,1.182,2.975,1.621c0.348,0.218,0.613,0.4,0.785,0.517
		c0.172,0.123,0.227,0.166,0.227,0.166l2.076,1.572l18.184-27.753l-2.135-1.307c-0.08-0.041-1.395-0.844-3.564-1.785
		c1.143-1.755,2.703-4.292,4.271-7.3c0.242-0.466,0.482-0.946,0.721-1.433c1.445,0.724,3.211,0.094,3.902-1.444
		c0.688-1.541-0.029-3.3-1.52-3.874c0.26-0.653,0.506-1.314,0.742-1.984c1.521,0.546,3.211-0.312,3.676-1.983
		c0.5-1.655-0.535-3.317-2.09-3.621c0.146-0.69,0.275-1.387,0.377-2.085C924.663,548.845,926.202,547.649,926.251,545.836
		 M850.394,510.067c3.803,0,6.887,3.082,6.887,6.884c0,3.801-3.084,6.884-6.887,6.884c-3.801,0-6.882-3.083-6.882-6.884
		C843.512,513.149,846.593,510.067,850.394,510.067 M845.94,527.88c1.621,0,4.453,1.441,4.453,1.441s2.836-1.441,4.455-1.441
		c3.381,0,6.746,3.46,6.746,7.736c0,9.979-2.42,19.417-3.076,21.785c-1.297-2.061-2.98-3.217-4.252-3.893
		c-1.352-0.703-2.361-0.948-2.672-1.021c-0.801-0.184-1.602-0.184-2.401,0c-0.412,0.111-2.083,0.47-4.113,1.916
		c-0.947,0.681-1.972,1.659-2.81,3c-0.652-2.362-3.075-11.804-3.075-21.787C839.195,531.341,842.56,527.88,845.94,527.88
		 M798.438,546.953c-6.962,0-12.595,5.04-12.595,5.04c-8.276-11.695,2.767-24.72,16.734-22.314
		C802.578,529.679,797.09,535.349,798.438,546.953 M803.657,542.815c0-12.596,13.26-22.132,26.63-19.613
		c-8.617,2.324-18.445,13.046-18.445,22.581c0,4.873,1.172,9.627-1.888,9.627C805.996,555.41,803.657,549.776,803.657,542.815
		 M813.822,574.033c-7.826,0-3.239-11.606-3.239-11.606c2.7,7.556,11.605,3.379,11.605,7.556
		C822.188,572.222,821.379,574.033,813.822,574.033 M833.346,541.915c-8.453,0-16.015,3.238-16.015,3.238
		s3.597-15.292,17.634-17.812C834.965,527.341,833.1,534.357,833.346,541.915 M856.675,572.582c-3.473,0-6.281-2.697-6.281-2.697
		s-2.808,2.697-6.278,2.697c-3.938,0-7.124-2.454-7.124-5.484c2.213-2.213,5.082-1.313,5.082-1.313s0.982,3.033,4.425,0.983
		c0-1.948-0.407-3.77-0.407-3.77c0-4.264,4.303-5.249,4.303-5.249s4.303,0.985,4.303,5.249c0,0-0.406,1.822-0.406,3.77
		c3.439,2.05,4.424-0.983,4.424-0.983s2.871-0.901,5.086,1.313C863.8,570.127,860.614,572.582,856.675,572.582 M867.444,541.915
		c0.244-7.558-1.621-14.574-1.621-14.574c14.037,2.52,17.633,17.812,17.633,17.812S875.896,541.915,867.444,541.915
		 M886.964,574.033c-7.555,0-8.365-1.811-8.365-4.05c0-4.176,8.904,0,11.605-7.556C890.204,562.427,894.79,574.033,886.964,574.033
		 M890.833,555.41c-3.059,0-1.891-4.754-1.891-9.627c0-9.535-9.824-20.257-18.441-22.581c13.369-2.519,26.631,7.017,26.631,19.613
		C897.132,549.776,894.79,555.41,890.833,555.41 M914.944,551.993c0,0-5.635-5.04-12.596-5.04
		c1.35-11.604-4.137-17.274-4.137-17.274C912.177,527.272,923.22,540.297,914.944,551.993 M804.956,611.417l-2.534-3.868
		c15.453-3.382,31.501-5.181,47.972-5.181c16.469,0,32.518,1.799,47.973,5.181l-2.531,3.868
		c-14.662-3.092-29.861-4.729-45.441-4.729C834.813,606.688,819.615,608.326,804.956,611.417 M850.394,550.282
		c-1.117,0-2.024-0.905-2.024-2.024c0-1.117,0.907-2.025,2.024-2.025c1.119,0,2.025,0.908,2.025,2.025
		C852.419,549.376,851.513,550.282,850.394,550.282 M850.394,535.708c-1.117,0-2.024-0.908-2.024-2.024
		c0-1.121,0.907-2.026,2.024-2.026c1.119,0,2.025,0.905,2.025,2.026C852.419,534.801,851.513,535.708,850.394,535.708
		 M850.394,542.997c-1.117,0-2.024-0.908-2.024-2.024c0-1.121,0.907-2.026,2.024-2.026c1.119,0,2.025,0.905,2.025,2.026
		C852.419,542.088,851.513,542.997,850.394,542.997"/>
</g>
</svg>
